<?xml version="1.0" encoding="UTF-8"?>
<svg xmlns="http://www.w3.org/2000/svg" xmlns:xlink="http://www.w3.org/1999/xlink" version="1.1" viewBox="0 0 289 289">
  <defs>
    <style>
      .cls-1 {
        fill: url(#radial-gradient-7);
      }

      .cls-2 {
        fill: url(#radial-gradient-6);
      }

      .cls-3 {
        fill: url(#radial-gradient-5);
      }

      .cls-4 {
        fill: url(#radial-gradient-9);
      }

      .cls-5 {
        fill: url(#radial-gradient-8);
      }

      .cls-6 {
        fill: #ffff86;
      }

      .cls-7 {
        fill: url(#linear-gradient-2);
      }

      .cls-8 {
        opacity: .3;
      }

      .cls-8, .cls-9 {
        mix-blend-mode: color-burn;
      }

      .cls-9, .cls-10, .cls-11 {
        opacity: .7;
      }

      .cls-12 {
        fill: url(#linear-gradient);
      }

      .cls-13 {
        fill: url(#radial-gradient-13);
      }

      .cls-13, .cls-14, .cls-15, .cls-16, .cls-17, .cls-18, .cls-19, .cls-20, .cls-21, .cls-22, .cls-23, .cls-24, .cls-25, .cls-26, .cls-27, .cls-28, .cls-29, .cls-30, .cls-31, .cls-32, .cls-10, .cls-33, .cls-34, .cls-35, .cls-36, .cls-37 {
        isolation: isolate;
      }

      .cls-13, .cls-15, .cls-16, .cls-17, .cls-18, .cls-19, .cls-20, .cls-21, .cls-22, .cls-23, .cls-24, .cls-25, .cls-26, .cls-27, .cls-28, .cls-29, .cls-30, .cls-31, .cls-32, .cls-10, .cls-33, .cls-34, .cls-35, .cls-36, .cls-37 {
        mix-blend-mode: screen;
      }

      .cls-38 {
        fill: #c50015;
      }

      .cls-39 {
        mix-blend-mode: color-dodge;
        opacity: .8;
      }

      .cls-15 {
        fill: url(#radial-gradient-19);
      }

      .cls-15, .cls-16, .cls-17, .cls-18, .cls-19, .cls-20, .cls-21, .cls-22, .cls-23, .cls-24, .cls-25, .cls-26, .cls-27, .cls-28, .cls-29, .cls-30, .cls-31, .cls-33, .cls-34, .cls-35 {
        fill-rule: evenodd;
      }

      .cls-16 {
        fill: url(#radial-gradient-36);
      }

      .cls-17 {
        fill: url(#radial-gradient-30);
      }

      .cls-18 {
        fill: url(#radial-gradient-31);
      }

      .cls-19 {
        fill: url(#radial-gradient-32);
      }

      .cls-20 {
        fill: url(#radial-gradient-33);
      }

      .cls-21 {
        fill: url(#radial-gradient-21);
      }

      .cls-22 {
        fill: url(#radial-gradient-24);
      }

      .cls-23 {
        fill: url(#radial-gradient-29);
      }

      .cls-24 {
        fill: url(#radial-gradient-27);
      }

      .cls-25 {
        fill: url(#radial-gradient-26);
      }

      .cls-26 {
        fill: url(#radial-gradient-20);
      }

      .cls-27 {
        fill: url(#radial-gradient-34);
      }

      .cls-28 {
        fill: url(#radial-gradient-22);
      }

      .cls-29 {
        fill: url(#radial-gradient-28);
      }

      .cls-30 {
        fill: url(#radial-gradient-23);
      }

      .cls-31 {
        fill: url(#radial-gradient-25);
      }

      .cls-32 {
        fill: url(#radial-gradient);
      }

      .cls-32, .cls-33 {
        opacity: .5;
      }

      .cls-40 {
        fill: url(#radial-gradient-16);
      }

      .cls-41 {
        fill: url(#radial-gradient-12);
      }

      .cls-42 {
        fill: url(#radial-gradient-14);
      }

      .cls-43 {
        fill: url(#radial-gradient-10);
      }

      .cls-44 {
        fill: url(#radial-gradient-17);
      }

      .cls-45 {
        fill: url(#radial-gradient-11);
      }

      .cls-46 {
        fill: url(#radial-gradient-18);
      }

      .cls-47 {
        fill: url(#radial-gradient-15);
      }

      .cls-10 {
        fill: url(#radial-gradient-4);
      }

      .cls-48 {
        fill: #fff;
      }

      .cls-49 {
        fill: #fff800;
      }

      .cls-11 {
        mix-blend-mode: overlay;
      }

      .cls-33 {
        fill: url(#radial-gradient-37);
      }

      .cls-34 {
        fill: url(#radial-gradient-35);
      }

      .cls-34, .cls-35 {
        opacity: .41;
      }

      .cls-35 {
        fill: url(#radial-gradient-38);
      }

      .cls-50 {
        mix-blend-mode: soft-light;
      }

      .cls-36 {
        fill: url(#radial-gradient-2);
      }

      .cls-37 {
        fill: url(#radial-gradient-3);
      }
    </style>
    <radialGradient id="radial-gradient" cx="-151.85" cy="563.82" fx="-151.85" fy="563.82" r="1" gradientTransform="translate(20346.15 75154.29) scale(133.04 -133.04)" gradientUnits="userSpaceOnUse">
      <stop offset=".7" stop-color="#090000"/>
      <stop offset=".71" stop-color="#3c0000"/>
      <stop offset=".72" stop-color="#6a0000"/>
      <stop offset=".73" stop-color="#920000"/>
      <stop offset=".74" stop-color="#b40000"/>
      <stop offset=".75" stop-color="#cf0000"/>
      <stop offset=".77" stop-color="#e40000"/>
      <stop offset=".78" stop-color="#f30000"/>
      <stop offset=".8" stop-color="#fc0000"/>
      <stop offset=".82" stop-color="red"/>
      <stop offset=".83" stop-color="#f10000"/>
      <stop offset=".89" stop-color="#8b0000"/>
      <stop offset=".96" stop-color="#fff" stop-opacity="0"/>
    </radialGradient>
    <radialGradient id="radial-gradient-2" cx="-151.63" cy="563.41" fx="-151.63" fy="563.41" r="1" gradientTransform="translate(17025.36 62863.9) scale(111.34 -111.34)" gradientUnits="userSpaceOnUse">
      <stop offset=".81" stop-color="#000"/>
      <stop offset=".83" stop-color="#110f02"/>
      <stop offset=".87" stop-color="#403909"/>
      <stop offset=".92" stop-color="#8b7c13"/>
      <stop offset=".99" stop-color="#f1d722"/>
      <stop offset="1" stop-color="#ffe324"/>
    </radialGradient>
    <radialGradient id="radial-gradient-3" cx="-150.95" cy="555.33" fx="-150.95" fy="555.33" r="1" gradientTransform="translate(11419.05 14728.4) scale(74.69 -26.14)" gradientUnits="userSpaceOnUse">
      <stop offset="0" stop-color="red"/>
      <stop offset=".1" stop-color="#fa0000"/>
      <stop offset=".23" stop-color="#eb0000"/>
      <stop offset=".36" stop-color="#d30000"/>
      <stop offset=".5" stop-color="#b20000"/>
      <stop offset=".65" stop-color="#870000"/>
      <stop offset=".8" stop-color="#520000"/>
      <stop offset=".95" stop-color="#150000"/>
      <stop offset="1" stop-color="#000"/>
    </radialGradient>
    <radialGradient id="radial-gradient-4" cx="-151.49" cy="563.17" fx="-151.49" fy="563.17" r="1" gradientTransform="translate(15517.65 57292.49) scale(101.48 -101.48)" gradientUnits="userSpaceOnUse">
      <stop offset=".49" stop-color="red"/>
      <stop offset=".52" stop-color="#f10000"/>
      <stop offset=".7" stop-color="#8b0000"/>
      <stop offset=".84" stop-color="#400000"/>
      <stop offset=".95" stop-color="#100"/>
      <stop offset="1" stop-color="#000"/>
    </radialGradient>
    <linearGradient id="linear-gradient" x1="142.95" y1="225.88" x2="142.95" y2="54" gradientTransform="translate(0 289.89) scale(1 -1)" gradientUnits="userSpaceOnUse">
      <stop offset=".23" stop-color="#f50"/>
      <stop offset=".38" stop-color="#ff7100"/>
      <stop offset=".69" stop-color="#ffb900"/>
      <stop offset=".97" stop-color="#ff0"/>
    </linearGradient>
    <radialGradient id="radial-gradient-5" cx="-114.85" cy="497.07" fx="-114.85" fy="497.07" r="1" gradientTransform="translate(542.49 2091.62) scale(4.01 -4.01)" gradientUnits="userSpaceOnUse">
      <stop offset="0" stop-color="#ff0"/>
      <stop offset="1" stop-color="#f50"/>
    </radialGradient>
    <radialGradient id="radial-gradient-6" cx="-97.92" cy="466.53" fx="-97.92" fy="466.53" r="1" gradientTransform="translate(366 1431.64) scale(2.78 -2.78)" gradientUnits="userSpaceOnUse">
      <stop offset="0" stop-color="#ff0"/>
      <stop offset="1" stop-color="#f50"/>
    </radialGradient>
    <radialGradient id="radial-gradient-7" cx="-105.04" cy="462.91" fx="-105.04" fy="462.91" r="1" gradientTransform="translate(601.52 1382.01) rotate(-4.03) scale(2.78 -2.78)" gradientUnits="userSpaceOnUse">
      <stop offset="0" stop-color="#ff0"/>
      <stop offset="1" stop-color="#f50"/>
    </radialGradient>
    <radialGradient id="radial-gradient-8" cx="-87.97" cy="426.25" fx="-87.97" fy="426.25" r="1" gradientTransform="translate(450.94 1009.8) rotate(-4.03) scale(2.05 -2.05)" gradientUnits="userSpaceOnUse">
      <stop offset="0" stop-color="#ff0"/>
      <stop offset="1" stop-color="#f50"/>
    </radialGradient>
    <radialGradient id="radial-gradient-9" cx="-1.06" cy="291.79" fx="-1.06" fy="291.79" r="1" gradientTransform="translate(87.07 447.57) scale(1.01 -1.01)" gradientUnits="userSpaceOnUse">
      <stop offset="0" stop-color="#ff0"/>
      <stop offset="1" stop-color="#f50"/>
    </radialGradient>
    <radialGradient id="radial-gradient-10" cx="-1.06" cy="291.8" fx="-1.06" fy="291.8" r="1" gradientTransform="translate(176.08 438.45) scale(1.01 -1.01)" gradientUnits="userSpaceOnUse">
      <stop offset="0" stop-color="#ff0"/>
      <stop offset="1" stop-color="#f50"/>
    </radialGradient>
    <radialGradient id="radial-gradient-11" cx="-64.87" cy="406.92" fx="-64.87" fy="406.92" r="1" gradientTransform="translate(235.63 815.82) scale(1.74 -1.74)" gradientUnits="userSpaceOnUse">
      <stop offset="0" stop-color="#ff0"/>
      <stop offset="1" stop-color="#f50"/>
    </radialGradient>
    <radialGradient id="radial-gradient-12" cx="-64.87" cy="406.92" fx="-64.87" fy="406.92" r="1" gradientTransform="translate(291.45 847.1) scale(1.74 -1.74)" gradientUnits="userSpaceOnUse">
      <stop offset="0" stop-color="#ff0"/>
      <stop offset="1" stop-color="#f50"/>
    </radialGradient>
    <radialGradient id="radial-gradient-13" cx="-151.59" cy="563.34" fx="-151.59" fy="563.34" r="1" gradientTransform="translate(16576.88 61192.83) scale(108.4 -108.4)" gradientUnits="userSpaceOnUse">
      <stop offset=".81" stop-color="#000"/>
      <stop offset=".83" stop-color="#110002"/>
      <stop offset=".87" stop-color="#400009"/>
      <stop offset=".92" stop-color="#8b0013"/>
      <stop offset=".99" stop-color="#f10022"/>
      <stop offset="1" stop-color="#ff0024"/>
    </radialGradient>
    <linearGradient id="linear-gradient-2" x1="81.81" y1="139.25" x2="81.81" y2="96.33" gradientTransform="translate(0 289.89) scale(1 -1)" gradientUnits="userSpaceOnUse">
      <stop offset=".23" stop-color="#f50"/>
      <stop offset=".38" stop-color="#ff7100"/>
      <stop offset=".69" stop-color="#ffb900"/>
      <stop offset=".97" stop-color="#ff0"/>
    </linearGradient>
    <radialGradient id="radial-gradient-14" cx="-127.75" cy="520.34" fx="-127.75" fy="520.34" r="1" gradientTransform="translate(876.77 3317.5) scale(6.06 -6.06)" gradientUnits="userSpaceOnUse">
      <stop offset="0" stop-color="#ff0"/>
      <stop offset="1" stop-color="#f50"/>
    </radialGradient>
    <radialGradient id="radial-gradient-15" cx="-58.24" cy="394.95" fx="-58.24" fy="394.95" r="1" gradientTransform="translate(164.3 798.71) scale(1.61 -1.61)" gradientUnits="userSpaceOnUse">
      <stop offset="0" stop-color="#ff0"/>
      <stop offset="1" stop-color="#f50"/>
    </radialGradient>
    <radialGradient id="radial-gradient-16" cx="-96.87" cy="464.63" fx="-96.87" fy="464.63" r="1" gradientTransform="translate(334.3 1468.44) scale(2.73 -2.73)" gradientUnits="userSpaceOnUse">
      <stop offset="0" stop-color="#ff0"/>
      <stop offset="1" stop-color="#f50"/>
    </radialGradient>
    <radialGradient id="radial-gradient-17" cx="-135.37" cy="534.09" fx="-135.37" fy="534.09" r="1" gradientTransform="translate(1389.98 4807.8) scale(8.68 -8.68)" gradientUnits="userSpaceOnUse">
      <stop offset="0" stop-color="#ff0"/>
      <stop offset="1" stop-color="#f50"/>
    </radialGradient>
    <radialGradient id="radial-gradient-18" cx="-141.48" cy="545.11" fx="-141.48" fy="545.11" r="1" gradientTransform="translate(2057.35 7349.88) scale(13.28 -13.28)" gradientUnits="userSpaceOnUse">
      <stop offset="0" stop-color="#ff0"/>
      <stop offset="1" stop-color="#f50"/>
    </radialGradient>
    <radialGradient id="radial-gradient-19" cx="-178.06" cy="552.19" fx="-178.06" fy="552.19" r="1" gradientTransform="translate(6142.36 -662.55) rotate(-90.34) scale(11.05 -11.05)" gradientUnits="userSpaceOnUse">
      <stop offset=".02" stop-color="#ff0038"/>
      <stop offset=".08" stop-color="#e40032"/>
      <stop offset=".22" stop-color="#a80025"/>
      <stop offset=".37" stop-color="#750019"/>
      <stop offset=".51" stop-color="#4b0010"/>
      <stop offset=".64" stop-color="#2a0009"/>
      <stop offset=".77" stop-color="#120004"/>
      <stop offset=".89" stop-color="#040001"/>
      <stop offset=".99" stop-color="#000"/>
    </radialGradient>
    <radialGradient id="radial-gradient-20" cx="-194.07" cy="543.44" fx="-194.07" fy="543.44" r="1" gradientTransform="translate(3707.85 11.2) rotate(-90.34) scale(6.74 -6.74)" gradientUnits="userSpaceOnUse">
      <stop offset=".02" stop-color="#0fd"/>
      <stop offset=".08" stop-color="#00e4c6"/>
      <stop offset=".22" stop-color="#00a892"/>
      <stop offset=".37" stop-color="#007565"/>
      <stop offset=".51" stop-color="#004b41"/>
      <stop offset=".64" stop-color="#002a24"/>
      <stop offset=".77" stop-color="#001210"/>
      <stop offset=".89" stop-color="#000404"/>
      <stop offset=".99" stop-color="#000"/>
    </radialGradient>
    <radialGradient id="radial-gradient-21" cx="-207.08" cy="536.33" fx="-207.08" fy="536.33" r="1" gradientTransform="translate(2791.33 264.84) rotate(-90.34) scale(5.12 -5.12)" gradientUnits="userSpaceOnUse">
      <stop offset=".02" stop-color="#ff0038"/>
      <stop offset=".08" stop-color="#e40032"/>
      <stop offset=".22" stop-color="#a80025"/>
      <stop offset=".37" stop-color="#750019"/>
      <stop offset=".51" stop-color="#4b0010"/>
      <stop offset=".64" stop-color="#2a0009"/>
      <stop offset=".77" stop-color="#120004"/>
      <stop offset=".89" stop-color="#040001"/>
      <stop offset=".99" stop-color="#000"/>
    </radialGradient>
    <radialGradient id="radial-gradient-22" cx="-187.14" cy="547.23" fx="-187.14" fy="547.23" r="1" gradientTransform="translate(4558.38 -287.38) rotate(-90.34) scale(8.11 -8.11)" gradientUnits="userSpaceOnUse">
      <stop offset=".02" stop-color="#ff0038"/>
      <stop offset=".08" stop-color="#e40032"/>
      <stop offset=".22" stop-color="#a80025"/>
      <stop offset=".37" stop-color="#750019"/>
      <stop offset=".51" stop-color="#4b0010"/>
      <stop offset=".64" stop-color="#2a0009"/>
      <stop offset=".77" stop-color="#120004"/>
      <stop offset=".89" stop-color="#040001"/>
      <stop offset=".99" stop-color="#000"/>
    </radialGradient>
    <radialGradient id="radial-gradient-23" cx="-209.31" cy="535.11" fx="-209.31" fy="535.11" r="1" gradientTransform="translate(2753.98 211.99) rotate(-90.34) scale(4.92 -4.92)" gradientUnits="userSpaceOnUse">
      <stop offset=".02" stop-color="#0fd"/>
      <stop offset=".08" stop-color="#00e4c6"/>
      <stop offset=".22" stop-color="#00a892"/>
      <stop offset=".37" stop-color="#007565"/>
      <stop offset=".51" stop-color="#004b41"/>
      <stop offset=".64" stop-color="#002a24"/>
      <stop offset=".77" stop-color="#001210"/>
      <stop offset=".89" stop-color="#000404"/>
      <stop offset=".99" stop-color="#000"/>
    </radialGradient>
    <radialGradient id="radial-gradient-24" cx="-226.81" cy="525.54" fx="-226.81" fy="525.54" r="1" gradientTransform="translate(2095.24 394.29) rotate(-90.34) scale(3.75 -3.75)" gradientUnits="userSpaceOnUse">
      <stop offset=".02" stop-color="#ff0038"/>
      <stop offset=".08" stop-color="#e40032"/>
      <stop offset=".22" stop-color="#a80025"/>
      <stop offset=".37" stop-color="#750019"/>
      <stop offset=".51" stop-color="#4b0010"/>
      <stop offset=".64" stop-color="#2a0009"/>
      <stop offset=".77" stop-color="#120004"/>
      <stop offset=".89" stop-color="#040001"/>
      <stop offset=".99" stop-color="#000"/>
    </radialGradient>
    <radialGradient id="radial-gradient-25" cx="-209.31" cy="535.11" fx="-209.31" fy="535.11" r="1" gradientTransform="translate(2783.32 277.01) rotate(-90.34) scale(4.92 -4.92)" gradientUnits="userSpaceOnUse">
      <stop offset=".02" stop-color="#ff0038"/>
      <stop offset=".08" stop-color="#e40032"/>
      <stop offset=".22" stop-color="#a80025"/>
      <stop offset=".37" stop-color="#750019"/>
      <stop offset=".51" stop-color="#4b0010"/>
      <stop offset=".64" stop-color="#2a0009"/>
      <stop offset=".77" stop-color="#120004"/>
      <stop offset=".89" stop-color="#040001"/>
      <stop offset=".99" stop-color="#000"/>
    </radialGradient>
    <radialGradient id="radial-gradient-26" cx="-245.58" cy="515.28" fx="-245.58" fy="515.28" r="1" gradientTransform="translate(1694.95 578.21) rotate(-90.34) scale(2.99 -2.99)" gradientUnits="userSpaceOnUse">
      <stop offset=".02" stop-color="#0fd"/>
      <stop offset=".08" stop-color="#00e4c6"/>
      <stop offset=".22" stop-color="#00a892"/>
      <stop offset=".37" stop-color="#007565"/>
      <stop offset=".51" stop-color="#004b41"/>
      <stop offset=".64" stop-color="#002a24"/>
      <stop offset=".77" stop-color="#001210"/>
      <stop offset=".89" stop-color="#000404"/>
      <stop offset=".99" stop-color="#000"/>
    </radialGradient>
    <radialGradient id="radial-gradient-27" cx="-274.38" cy="499.54" fx="-274.38" fy="499.54" r="1" gradientTransform="translate(1293.97 689.18) rotate(-90.34) scale(2.28 -2.28)" gradientUnits="userSpaceOnUse">
      <stop offset=".02" stop-color="#ff0038"/>
      <stop offset=".08" stop-color="#e40032"/>
      <stop offset=".22" stop-color="#a80025"/>
      <stop offset=".37" stop-color="#750019"/>
      <stop offset=".51" stop-color="#4b0010"/>
      <stop offset=".64" stop-color="#2a0009"/>
      <stop offset=".77" stop-color="#120004"/>
      <stop offset=".89" stop-color="#040001"/>
      <stop offset=".99" stop-color="#000"/>
    </radialGradient>
    <radialGradient id="radial-gradient-28" cx="-29.2" cy="579.04" fx="-29.2" fy="579.04" r="1" gradientTransform="translate(-1151.68 724.02) rotate(67.06) scale(2.53 -2.53)" gradientUnits="userSpaceOnUse">
      <stop offset=".02" stop-color="#ff6a48"/>
      <stop offset=".33" stop-color="#fc6947"/>
      <stop offset=".46" stop-color="#f56645"/>
      <stop offset=".56" stop-color="#e96041"/>
      <stop offset=".65" stop-color="#d7593c"/>
      <stop offset=".72" stop-color="#bf4f36"/>
      <stop offset=".79" stop-color="#a3432e"/>
      <stop offset=".85" stop-color="#803524"/>
      <stop offset=".9" stop-color="#592519"/>
      <stop offset=".95" stop-color="#2d130c"/>
      <stop offset="1" stop-color="#000"/>
    </radialGradient>
    <radialGradient id="radial-gradient-29" cx="-29.2" cy="579.04" fx="-29.2" fy="579.04" r="1" gradientTransform="translate(-1146.36 784.38) rotate(67.06) scale(2.53 -2.53)" gradientUnits="userSpaceOnUse">
      <stop offset=".02" stop-color="#ff6a48"/>
      <stop offset=".33" stop-color="#fc6947"/>
      <stop offset=".46" stop-color="#f56645"/>
      <stop offset=".56" stop-color="#e96041"/>
      <stop offset=".65" stop-color="#d7593c"/>
      <stop offset=".72" stop-color="#bf4f36"/>
      <stop offset=".79" stop-color="#a3432e"/>
      <stop offset=".85" stop-color="#803524"/>
      <stop offset=".9" stop-color="#592519"/>
      <stop offset=".95" stop-color="#2d130c"/>
      <stop offset="1" stop-color="#000"/>
    </radialGradient>
    <radialGradient id="radial-gradient-30" cx="188.04" cy="602.11" fx="188.04" fy="602.11" r="1" gradientTransform="translate(-489.98 232.29) rotate(67.06) scale(.92 -.92)" gradientUnits="userSpaceOnUse">
      <stop offset=".02" stop-color="#ff0038"/>
      <stop offset=".08" stop-color="#e40032"/>
      <stop offset=".22" stop-color="#a80025"/>
      <stop offset=".37" stop-color="#750019"/>
      <stop offset=".51" stop-color="#4b0010"/>
      <stop offset=".64" stop-color="#2a0009"/>
      <stop offset=".77" stop-color="#120004"/>
      <stop offset=".89" stop-color="#040001"/>
      <stop offset=".99" stop-color="#000"/>
    </radialGradient>
    <radialGradient id="radial-gradient-31" cx="116.78" cy="594.54" fx="116.78" fy="594.54" r="1" gradientTransform="translate(-606.06 320.14) rotate(67.06) scale(1.16 -1.16)" gradientUnits="userSpaceOnUse">
      <stop offset=".02" stop-color="#ff6a48"/>
      <stop offset=".33" stop-color="#fc6947"/>
      <stop offset=".46" stop-color="#f56645"/>
      <stop offset=".56" stop-color="#e96041"/>
      <stop offset=".65" stop-color="#d7593c"/>
      <stop offset=".72" stop-color="#bf4f36"/>
      <stop offset=".79" stop-color="#a3432e"/>
      <stop offset=".85" stop-color="#803524"/>
      <stop offset=".9" stop-color="#592519"/>
      <stop offset=".95" stop-color="#2d130c"/>
      <stop offset="1" stop-color="#000"/>
    </radialGradient>
    <radialGradient id="radial-gradient-32" cx="116.78" cy="594.54" fx="116.78" fy="594.54" r="1" gradientTransform="translate(-518.71 293.18) rotate(67.06) scale(1.16 -1.16)" gradientUnits="userSpaceOnUse">
      <stop offset=".02" stop-color="#ff6a48"/>
      <stop offset=".33" stop-color="#fc6947"/>
      <stop offset=".46" stop-color="#f56645"/>
      <stop offset=".56" stop-color="#e96041"/>
      <stop offset=".65" stop-color="#d7593c"/>
      <stop offset=".72" stop-color="#bf4f36"/>
      <stop offset=".79" stop-color="#a3432e"/>
      <stop offset=".85" stop-color="#803524"/>
      <stop offset=".9" stop-color="#592519"/>
      <stop offset=".95" stop-color="#2d130c"/>
      <stop offset="1" stop-color="#000"/>
    </radialGradient>
    <radialGradient id="radial-gradient-33" cx="116.78" cy="594.54" fx="116.78" fy="594.54" r="1" gradientTransform="translate(-521.3 342.41) rotate(67.06) scale(1.16 -1.16)" gradientUnits="userSpaceOnUse">
      <stop offset=".02" stop-color="#ff6a48"/>
      <stop offset=".33" stop-color="#fc6947"/>
      <stop offset=".46" stop-color="#f56645"/>
      <stop offset=".56" stop-color="#e96041"/>
      <stop offset=".65" stop-color="#d7593c"/>
      <stop offset=".72" stop-color="#bf4f36"/>
      <stop offset=".79" stop-color="#a3432e"/>
      <stop offset=".85" stop-color="#803524"/>
      <stop offset=".9" stop-color="#592519"/>
      <stop offset=".95" stop-color="#2d130c"/>
      <stop offset="1" stop-color="#000"/>
    </radialGradient>
    <radialGradient id="radial-gradient-34" cx="116.78" cy="594.54" fx="116.78" fy="594.54" r="1" gradientTransform="translate(-528.73 354.82) rotate(67.06) scale(1.16 -1.16)" gradientUnits="userSpaceOnUse">
      <stop offset=".02" stop-color="#ff6a48"/>
      <stop offset=".33" stop-color="#fc6947"/>
      <stop offset=".46" stop-color="#f56645"/>
      <stop offset=".56" stop-color="#e96041"/>
      <stop offset=".65" stop-color="#d7593c"/>
      <stop offset=".72" stop-color="#bf4f36"/>
      <stop offset=".79" stop-color="#a3432e"/>
      <stop offset=".85" stop-color="#803524"/>
      <stop offset=".9" stop-color="#592519"/>
      <stop offset=".95" stop-color="#2d130c"/>
      <stop offset="1" stop-color="#000"/>
    </radialGradient>
    <radialGradient id="radial-gradient-35" cx="-94.5" cy="572.1" fx="-94.5" fy="572.1" r="1" gradientTransform="translate(-2506.67 1780.33) rotate(67.06) scale(5.36 -5.36)" gradientUnits="userSpaceOnUse">
      <stop offset=".02" stop-color="#ffbe49"/>
      <stop offset=".33" stop-color="#b28433"/>
      <stop offset="1" stop-color="#000"/>
    </radialGradient>
    <radialGradient id="radial-gradient-36" cx="-41.43" cy="577.74" fx="-41.43" fy="577.74" r="1" gradientTransform="translate(-1334.25 844.28) rotate(67.06) scale(2.81 -2.81)" gradientUnits="userSpaceOnUse">
      <stop offset=".02" stop-color="#ff0038"/>
      <stop offset=".08" stop-color="#e40032"/>
      <stop offset=".22" stop-color="#a80025"/>
      <stop offset=".37" stop-color="#750019"/>
      <stop offset=".51" stop-color="#4b0010"/>
      <stop offset=".64" stop-color="#2a0009"/>
      <stop offset=".77" stop-color="#120004"/>
      <stop offset=".89" stop-color="#040001"/>
      <stop offset=".99" stop-color="#000"/>
    </radialGradient>
    <radialGradient id="radial-gradient-37" cx="-41.43" cy="577.74" fx="-41.43" fy="577.74" r="1" gradientTransform="translate(-1285.05 939.68) rotate(67.06) scale(2.81 -2.81)" gradientUnits="userSpaceOnUse">
      <stop offset=".02" stop-color="#a77049"/>
      <stop offset=".48" stop-color="#5a3c27"/>
      <stop offset="1" stop-color="#000"/>
    </radialGradient>
    <radialGradient id="radial-gradient-38" cx="-41.43" cy="577.74" fx="-41.43" fy="577.74" r="1" gradientTransform="translate(-1324.84 816.45) rotate(67.06) scale(2.81 -2.81)" gradientUnits="userSpaceOnUse">
      <stop offset=".02" stop-color="#ffbe49"/>
      <stop offset=".33" stop-color="#b28433"/>
      <stop offset="1" stop-color="#000"/>
    </radialGradient>
  </defs>
  <!-- Generator: Adobe Illustrator 28.7.0, SVG Export Plug-In . SVG Version: 1.2.0 Build 55)  -->
  <g class="cls-14">
    <g id="Layer_1">
      <path class="cls-32" d="M288.06,144.01c0,5.02-.26,9.97-.75,14.86-.14,1.48-.31,2.95-.52,4.41-.75,5.71-1.86,11.3-3.26,16.75-.31,1.23-.66,2.45-1.01,3.66-17.22,60.24-72.69,104.34-138.47,104.34S20.54,242.15,4.55,180.04C1.68,168.94.1,157.33,0,145.35v-1.35c0-33.66,11.55-64.62,30.9-89.13,3.21-4.08,6.67-8,10.31-11.72C62.87,21.09,91.56,5.97,123.68,1.42c1.88-.28,3.75-.5,5.64-.69C134.17.24,139.05,0,144.01,0,145.23,0,146.43,0,147.64.05h.1c5.5.14,10.94.59,16.3,1.35h.04c2.76.38,5.49.85,8.18,1.39,29.51,5.85,55.78,20.73,75.82,41.63.99,1.02,1.96,2.08,2.92,3.14,23.04,25.54,37.08,59.36,37.08,96.46l-.02-.02Z"/>
      <path class="cls-36" d="M253.02,143.7c0,31.11-13.11,59.17-34.11,78.92-19.41,18.25-45.5,29.43-74.24,29.43-30.16,0-57.43-12.31-77.07-32.19-19.34-19.58-31.29-46.48-31.29-76.16,0-17.62,4.22-34.29,11.68-48.99,17.88-35.23,54.44-59.36,96.67-59.36,30.96,0,58.87,12.99,78.61,33.79,18.44,19.43,29.74,45.68,29.74,74.57Z"/>
      <path class="cls-37" d="M220.18,221.46c-.38.4-.78.76-1.18,1.15-5.17,4.86-10.83,9.22-16.89,13-13.84,4.38-34.39,7.14-57.34,7.14s-43.49-2.76-57.34-7.12c-6.53-4.08-12.59-8.84-18.09-14.17,1.75-10.83,34.86-19.48,75.43-19.48s73.66,8.65,75.42,19.48Z"/>
      <path class="cls-10" d="M216.41,215.45c39.63-39.63,39.63-103.88,0-143.51-39.63-39.63-103.88-39.63-143.51,0-39.63,39.63-39.63,103.88,0,143.51,39.63,39.63,103.88,39.63,143.51,0Z"/>
      <path class="cls-12" d="M218.91,222.62c-1.11,1.04-2.24,2.07-3.39,3.04.19-2.54.21-4.58-1.93-4.95,0,0-14.77,12-22.74,14.77-7.97,2.78-8.42-9.81-8.42-9.81-2.55.52-5.1.68-7.64.5-2.93-.19-5.83-.88-8.4-2.29-4.69-2.53-7.03-6.41-6.68-11.79-.75.47-1.42,1.02-2.01,1.67-3.25,3.44-4.36,9.03-3.12,13.49-8.11,7.01-18.18,9.76-26.49,5.23-2.85-.14-5.42-.71-7.6-1.94-2.67-1.49-4.78-3.99-6.03-7.88-2.9-2.07-5.24-5.17-6.11-10.07-1.25-7.45-4.64-12.57-9.58-15.92-1.27-.89-2.66-1.63-4.15-2.28.83,3.07,1.49,5.47,1.48,8.63,0,1.04-.14,2.07-.28,3.11-1.08,7.62.1,12.73,5.03,18.07-3.37-1.7-6.2-3.87-7.38-7.52,0,0-1.96,5.76-3.58,7.52-1.58,1.72-7.15-.28-7.45-.38.14.26,2.81,5.36,1.68,6.84-1.16,1.49-9.36-7.85-9.36-7.85h-4.1c-1.02-.96-2.03-1.95-3.02-2.93-2.4-6.08-1.68-11.49,1.11-16.46,1.56,5.02,4.18,8.32,7.62,10.26-.28-4.08,1.32-8.63,3.23-13.28-2.24,18.66,6.39,24.39,11.55,10.17.97-2.69,1.55-5.55,1.48-8.42-.19-6.11-2.92-11.98-9.81-17.43-1.89-1.49-4.11-2.95-6.67-4.39-3.37-1.86-5.45-3.89-6.22-6.09-.5-1.44-.43-2.95.21-4.53,10.68-3.54,3.44-16.55-6.22-19.05,2.17.04,4.29.49,6.23,1.3,1.96.8,3.78,1.98,5.35,3.47,5.69,5.47,10.96,12.34,13.18,19.22.26-.87.54-1.68.82-2.48,2.26-6.6,4.76-10.73,8.09-11.7-1.01,6.84-.66,12.92,2.01,17.74,2.19,3.96,5.94,7.1,11.84,9.18-4.11-6.27-2.07-13.32,2.31-16.96-5.76,8.06-.71,14.51,3.92,16.96,1.94-9.03,2.26-17.83-2.08-24.83-1.96-2.85-4.17-5.5-5.17-9.86-.36-1.56-.16-3.26.75-4.58,1.58-2.24,3.37-1.39,2.34,1.53-.31,3.58.14,6.39,3.47,6.41.95,0,1.91-.26,2.76-.68,5.97-2.81,6.3-6.7-3.92-12.88-3.54-2.66-5.82-5.75-6.23-9.46.09-5.35-3.18-9.79-7.85-13.85,8.12-.76,13.92.49,16.86,3.92,4.57,4.58,10.07,7.07,17.05,6.23,2.85-.56,5.23-1.35,7.15-2.33.89-.45,1.68-.97,2.38-1.53h.02c5.94-4.64,4.98-12.19-2.13-20.36-5.54-4.93-10.78-8.28-15.54-9.24-1.82-.36-3.58-.38-5.24,0,.57-1.08,1.75-1.82,3.39-2.31,1.81-.54,4.17-.78,6.87-.8,1.01,0,2-.07,2.99-.19,3.35-.36,6.63-1.3,9.65-2.85,9.6-4.95,15.4-13.02,17.03-25.73-1.2,16.02-1.42,29.18,7.85,36.48,1.74,5.14,4.06,9.34,7.85,11.3-4.24,3.02-7.74,7.83-10.52,14.32-.73,1.68-1.54,3.33-2.41,4.95-3.37,6.32-4.05,12.08-.02,16.93,1.72,2.08,3.47,4.17,5.03,6.39l1.42,2.01c1.77,2.55,3.78,4.93,6.06,7.03,2.05,1.89,4.17,3.49,6.79,4.2.9.24,1.84.31,2.76.17,3.68-.57,3.7-3.4.17-8.18-4.31-5.02-3.47-17.83,9.9-22.21-11.81,8.61-8.79,16.74-5.76,22.87,3.19,5.92,6.16,10.54,10.85,15.02,2.85-2.62,4.46-6.02,4.84-10.17,1.49,3.58,2.01,7.43,1.79,11.46-.09,1.56.17,3.14.83,4.58v.02s.04.03.04.07c2.54,5.43,6.21,9.39,11.41,11.35,1.94,8.37.54,18.82-2.19,30.07l.02-.05Z"/>
      <g class="cls-11">
        <path class="cls-38" d="M136.68,171.22c2.99,7.66,2.78,16.29-.82,23.68-.03.07-.07.14-.09.19-1.22,2.45-3.18,4.46-5.5,5.85l-13.3,7.99c9.03-7.93,10.62-15,.69-21.58,1.94-9.03,2.26-17.83-2.08-24.83-1.96-2.85-4.17-5.5-5.17-9.86-.36-1.56-.16-3.26.75-4.58,1.58-2.24,3.37-1.39,2.34,1.53-.31,3.58.14,6.39,3.47,6.41.95,0,1.91-.26,2.76-.68,5.97-2.81,6.3-6.7-3.92-12.88-.14-.1-.26-.21-.4-.29-2.46-4.15-3.65-7.62-3.65-11.3.1-4.51-1.18-6.13-4.97-9.93,5.38.33,9.55,1.01,12.72,5.3.49.66.99,1.32,1.6,1.86,3.12,2.81,7.21,3.18,12.12,1.37.78,0,1.58-.07,2.4-.16,2.85-.56,5.23-1.35,7.15-2.33-13.46,9.38-13.61,25.02-6.11,44.27v-.02Z"/>
      </g>
      <g class="cls-39">
        <path class="cls-48" d="M221.1,192.55s-1.63,16.15-3.58,9.25c-2.86-10.17-21.15-6.49-21.15-6.49-7.5-15.76-15.64-21.47-24.79-22.43-4.6-.49-8.89,2.31-10.55,6.63-1.35,3.51-3.28,6.18-5.24.97-3.58-9.53,6.18-18.18,6.18-18.18,0,0-5.83,2.19-8.84,12.59-1.41,4.84-.94,11.04-.05,16.29-3.39-8.19-7.97-20.85-10.26-36.72-3.33-23.16,22.52-39.79,24.15-40.83-1.94,1.02-36.72,19.74-27.79,51.3,9.18,32.47-2.78,39.39-14.34,50.3-5.76,5.45-5.78,11.06-4.34,15.33,2.19,1.23,4.76,1.81,7.6,1.94,8.32,4.53,18.39,1.79,26.49-5.23-1.25-4.51-.11-10.19,3.25-13.61.23-.22.45-.43.7-.64.07-.05.14-.12.21-.17.31-.26.64-.5,1.01-.73-.35,5.38,2.01,9.25,6.68,11.79,2.57,1.41,5.47,2.1,8.4,2.29,2.54.17,5.09,0,7.64-.5,0,0,.45,12.59,8.42,9.81,7.97-2.78,22.74-14.77,22.74-14.77,2.14.36,2.12,2.41,1.93,4.95,1.15-.97,2.27-2,3.39-3.04,2.71-11.25,4.11-21.7,2.19-30.07l-.03-.02Z"/>
      </g>
      <g class="cls-9">
        <path class="cls-38" d="M164.71,186.29c1.29,2.22,1.23,4.95,0,7.19-2.9,5.23-5.99,14.43,4.93,18.58,7.05,2.67,10.9-.26,18.06.64,2.38.3,4.74-.61,6.23-2.48,1.77-2.21,2.29-5.14,1.39-7.81-1.63-4.88-4.6-11.91-5.94-15.16-2.88-6.96-11.46-10.78-16.23-12.41-2.17-.75-4.57-.45-6.44.87-2.01,1.44-4.17,3.58-3.75,6.02.29,1.68.99,3.26,1.75,4.57Z"/>
      </g>
      <g class="cls-9">
        <path class="cls-38" d="M200.59,200.3c-.62-.38-1.39-.45-1.86.12-.38.47-.73,1.29-.76,2.69-.12,3.46.23,5.76-.29,7.05-.52,1.28-7.85,8.54-8.25,9.46s-1.25,3.79.99,4.32c7.45,1.79,16.56-6.23,17.08-9.53.52-3.28-.52-6.75-1.56-8.54-.82-1.41-3-4.15-5.33-5.57h-.02Z"/>
      </g>
      <g class="cls-9">
        <path class="cls-38" d="M202.09,199.2c3.75,3.37,6.96,7.26,9.29,12,.71,1.46,2.64,1.88,3.82.75.04-.04.07-.07.12-.11,3.68-3.63,2.6-9.88-1.93-12.36-2.9-1.58-6.42-2.34-10.42-2.5-1.2-.05-1.77,1.42-.89,2.22Z"/>
      </g>
      <g class="cls-8">
        <g class="cls-9">
          <path class="cls-38" d="M165.57,189.19c-.09-1.01-.38-2-.92-2.9-.75-1.3-1.46-2.88-1.74-4.57-.07-.42-.07-.83,0-1.23.28,1.68.97,3.25,1.74,4.53.75,1.28,1.04,2.74.92,4.18v-.02Z"/>
        </g>
        <path class="cls-38" d="M195.68,203.75c0,.21,0,.4-.04.61-.05-.66-.19-1.32-.4-1.96-1.61-4.88-4.6-11.91-5.94-15.16-2.88-6.96-11.46-10.78-16.23-12.41-2.17-.73-4.57-.45-6.44.89-1.67,1.18-3.42,2.86-3.73,4.79v-.04c-.42-2.45,1.74-4.6,3.75-6.04,1.86-1.32,4.27-1.62,6.44-.87,4.77,1.63,13.35,5.45,16.23,12.41,1.34,3.25,4.31,10.28,5.94,15.16.28.85.43,1.74.43,2.64l-.02-.02Z"/>
        <g class="cls-9">
          <path class="cls-38" d="M197.92,206.86c.03,1.48.02,2.55-.28,3.3-.52,1.27-7.85,8.54-8.26,9.46-.14.33-.35.92-.43,1.56-.21-1.02.21-2.27.43-2.83.4-.92,7.74-8.19,8.26-9.46.21-.5.28-1.18.28-2.03Z"/>
        </g>
        <path class="cls-38" d="M207.55,211.86c-.14-2.41-.92-4.65-1.68-5.99-.82-1.39-3-4.15-5.33-5.57-.62-.38-1.39-.45-1.86.1-.38.49-.73,1.28-.78,2.69,0,.28-.02.54,0,.8-.02-.62,0-1.34,0-2.08.04-1.39.38-2.21.78-2.69.45-.56,1.21-.49,1.86-.1,2.33,1.42,4.51,4.17,5.33,5.57.9,1.54,1.82,4.39,1.68,7.26v.02Z"/>
        <path class="cls-38" d="M217.45,205.89c-.19-2.57-1.63-5.05-4.11-6.41-2.9-1.58-6.42-2.34-10.42-2.48-.52-.02-.92.26-1.13.62-.49-.82.09-1.94,1.13-1.91,3.99.16,7.52.9,10.42,2.5,2.88,1.58,4.36,4.69,4.11,7.67Z"/>
      </g>
      <g class="cls-11">
        <path class="cls-38" d="M210.73,192.62s-7.1-10.3-18-18.21c-10.9-7.92-13.89-2.31-13.89-2.31-9.53-15.66-22-24.32-27.4-13.85.75-5.92,3.44-10.26,7.27-13.68-1.53-2.36-4.83-.38-8.75,3.13,9.44-22.33,18.49-31.22,27.95-35.96-4.24,3.02-7.74,7.83-10.52,14.32-.73,1.68-1.54,3.33-2.41,4.95-3.37,6.32-4.04,12.08-.02,16.93,1.72,2.08,3.47,4.17,5.04,6.39l1.42,2.01c1.77,2.55,3.79,4.93,6.06,7.03,2.05,1.89,4.17,3.49,6.79,4.2.9.24,1.84.31,2.76.17,3.68-.57,3.7-3.4.17-8.18-4.3-5.02-3.47-17.83,9.9-22.2-11.81,8.61-8.79,16.74-5.76,22.86,3.2,5.92,6.16,10.54,10.85,15.02,2.85-2.62,4.46-6.02,4.84-10.17,1.44,3.42,1.96,7.1,1.82,10.97-.07,1.74.21,3.45.82,5.07v.02s.03.03.03.07c1.69,4.41,2.28,8.33,1.04,11.44l-.02-.02Z"/>
      </g>
      <path class="cls-3" d="M86.93,99.79c0,2.22-1.79,4.01-4.01,4.01s-4.01-1.79-4.01-4.01,1.79-4.01,4.01-4.01,4.01,1.79,4.01,4.01Z"/>
      <path class="cls-2" d="M97.47,136.84c0,1.53-1.23,2.78-2.78,2.78s-2.78-1.23-2.78-2.78,1.23-2.78,2.78-2.78,2.78,1.23,2.78,2.78Z"/>
      <path class="cls-1" d="M223.63,120.71c.1,1.53-1.04,2.85-2.57,2.95-1.53.1-2.85-1.04-2.95-2.57-.1-1.53,1.04-2.85,2.57-2.95,1.53-.1,2.85,1.04,2.95,2.57Z"/>
      <path class="cls-5" d="M212.43,152.03c.09,1.13-.76,2.1-1.89,2.19-1.13.09-2.1-.76-2.19-1.89-.09-1.13.76-2.12,1.89-2.19,1.13-.09,2.1.76,2.19,1.89Z"/>
      <path class="cls-4" d="M86.27,155.17c.56,0,1.01-.45,1.01-1.01s-.45-1.01-1.01-1.01-1.01.45-1.01,1.01.45,1.01,1.01,1.01Z"/>
      <path class="cls-43" d="M176.29,145.04c0,.56-.45,1.01-1.01,1.01s-1.01-.45-1.01-1.01.45-1.01,1.01-1.01,1.01.45,1.01,1.01Z"/>
      <path class="cls-45" d="M125.18,110.07c0,.96-.78,1.74-1.74,1.74s-1.74-.78-1.74-1.74.78-1.74,1.74-1.74,1.74.78,1.74,1.74Z"/>
      <path class="cls-41" d="M180.99,141.36c0,.95-.78,1.74-1.74,1.74s-1.74-.78-1.74-1.74.78-1.74,1.74-1.74,1.74.78,1.74,1.74Z"/>
      <path class="cls-13" d="M253.11,143.68c0,30.52-12.64,58.11-32.93,77.78-.38.4-.78.76-1.18,1.15-5.17,4.86-10.83,9.22-16.89,13-16.63,10.42-36.29,16.42-57.34,16.42s-40.73-6.01-57.34-16.41c-6.53-4.08-12.59-8.84-18.09-14.17-.56-.54-1.09-1.08-1.63-1.62-19.34-19.58-31.29-46.48-31.29-76.16,0-17.62,4.2-34.27,11.68-48.99,17.88-35.21,54.44-59.36,96.67-59.36,30.94,0,58.85,12.99,78.61,33.79,18.42,19.43,29.74,45.68,29.74,74.57Z"/>
      <path class="cls-7" d="M96.95,184.74c1.09,2.81,2.08,5.85,2.73,8.82-.45-1.53-3.45-9.77-15.96-11.75-6.41-1.02-10.35-3.61-12.74-6.27-.4-.43-.76-.89-1.08-1.32-.5-1.44-.43-2.95.21-4.53,10.68-3.54,3.44-16.54-6.22-19.04,1.48.04,2.92.24,4.31.62.66.17,1.3.4,1.94.66,1.96.8,3.78,1.98,5.35,3.47,5.69,5.47,10.95,12.34,13.18,19.22.14-.43.28-.87.4-1.3,2.38-7.29,4.95-11.86,8.51-12.9-.78,5.38-.75,10.28.61,14.46,1.04,3.28,1.48,6.72,1.55,10.16v.49c-.99-.21-1.91-.49-2.78-.78Z"/>
      <g class="cls-39">
        <path class="cls-48" d="M100.82,224.2c-3.37-1.7-6.2-3.87-7.38-7.52-.03.09-.07.17-.09.26-.02.07-.05.16-.09.24-1.74,4.69-5.24,7.03-10.85,6.63.14.26,2.81,5.36,1.68,6.84-.26.33-.85.14-1.61-.38-.47-2.66-1.56-5.62-3.25-8.54-3.78-6.56-9.32-10.66-13.02-9.9.14-2.95,1.02-5.76,2.53-8.44,1.56,5.02,4.18,8.32,7.62,10.26-.28-4.08,1.32-8.63,3.23-13.28-2.24,18.66,6.39,24.39,11.55,10.17.97-2.69,1.55-5.56,1.48-8.42-.19-6.11-2.92-11.98-9.81-17.43,1.91.68,4.05,1.21,6.41,1.53,4.22.56,7.31,4.81,9.55,10.43-1.27-.88-2.66-1.63-4.15-2.27.83,3.07,1.49,5.47,1.48,8.63,0,1.04-.14,2.07-.28,3.11-1.08,7.62.1,12.73,5.03,18.07h-.03Z"/>
      </g>
      <g class="cls-39">
        <path class="cls-48" d="M76.77,171.98c-1.34,1.86-3.37,3.05-5.78,3.54-.4-.43-.76-.89-1.08-1.32-.5-1.44-.43-2.95.21-4.53,10.68-3.54,3.44-16.55-6.22-19.05,1.48.03,2.92.24,4.31.62.43.28.89.57,1.3.89,7.85,5.62,11.08,14.51,7.26,19.84Z"/>
      </g>
      <path class="cls-6" d="M162.22,63.94c-1.65,12.71-7.43,20.78-17.03,25.73-3.16,1.63-6.62,2.57-10.16,2.88-.31.03-.61.05-.92.09-.52.03-1.04.05-1.56.05-2.71.03-5.07.26-6.87.8-1.63.49-2.81,1.22-3.39,2.31,1.67-.38,3.42-.36,5.24,0l1.68-.38c2-.45,4.04-.66,6.09-.76,8.19-.42,16.06-4.39,21.23-11.09,1.23-1.6,2.33-3.3,3.33-5.16-1.89,10.9,2.24,17.76,10.21,22-9.27-7.31-9.04-20.45-7.85-36.48l-.02.02Z"/>
      <path class="cls-42" d="M101.51,156.41c1.37.73,2.41,2.12,2.92,3.68.52,1.56.49,3.37-.12,4.93-.57,1.54-1.44,2.74-1.98,3.98-.5,1.23-.87,2.6-.24,4.03-.68-.42-1.09-1.22-1.28-2.01-.17-.82-.16-1.67,0-2.48.36-1.63,1.13-2.97,1.6-4.22.47-1.23.64-2.52.49-3.87-.16-1.35-.59-2.69-1.37-4.03Z"/>
      <path class="cls-47" d="M69.29,158.96c.87.16,1.49.9,1.77,1.7.26.8.21,1.77-.38,2.43-.21-.83-.36-1.46-.59-2.1-.21-.64-.47-1.23-.8-2.03Z"/>
      <path class="cls-40" d="M71.46,205.23c.28-.64.24-1.27.09-1.82-.17-.56-.49-1.04-.89-1.51-.38-.47-.87-.9-1.32-1.41-.45-.5-.92-1.06-1.15-1.74.57.42,1.11.75,1.67,1.13.56.38,1.09.8,1.58,1.35.45.55.85,1.25.9,2.03.05.75-.23,1.58-.87,1.94l-.02.02Z"/>
      <path class="cls-44" d="M215.28,183.25c-1.67-1.41-2.86-3.42-3.47-5.59-.33-1.08-.47-2.21-.54-3.35-.04-1.15.09-2.27.31-3.4.26-1.11.64-2.22,1.18-3.23.56-.99,1.15-1.93,1.81-2.78,1.3-1.74,2.69-3.28,3.84-5.12-.37,2.17-1.48,4.15-2.5,5.99-1.02,1.86-1.96,3.63-2.33,5.59-.45,1.93-.49,3.98-.23,5.97.28,2.01.92,3.99,1.91,5.92h.02Z"/>
      <path class="cls-46" d="M178.44,92.55c-.73,1.63-.68,3.3-.19,4.83.47,1.55,1.28,2.93,2.22,4.31.96,1.37,2,2.78,2.9,4.39.9,1.58,1.67,3.49,1.7,5.56.05,2.03-.52,3.98-1.41,5.66-.88,1.68-2.05,3.16-3.37,4.41-2.62,2.52-5.66,4.32-8.8,5.85,2.4-2.57,4.98-4.88,7.05-7.47,2.03-2.55,3.56-5.5,3.49-8.4-.02-2.85-2.01-5.66-3.59-8.82-.82-1.6-1.48-3.39-1.65-5.24-.16-1.86.35-3.87,1.65-5.09v.02Z"/>
      <path class="cls-15" d="M107.64,152.88c6.13-.31,11.13,4.39,11.16,10.5.03,6.11-4.9,11.32-11.03,11.63-6.13.31-11.13-4.39-11.16-10.5-.03-6.11,4.9-11.32,11.02-11.63Z"/>
      <path class="cls-26" d="M107.68,157.22c3.71-.19,6.75,2.67,6.77,6.37.02,3.72-2.97,6.88-6.7,7.07-3.73.19-6.75-2.67-6.77-6.39-.02-3.72,2.97-6.88,6.7-7.07v.02Z"/>
      <path class="cls-21" d="M107.69,158.84c2.83-.14,5.14,2.03,5.16,4.84,0,2.83-2.26,5.23-5.09,5.38-2.83.14-5.14-2.03-5.16-4.84,0-2.83,2.26-5.23,5.09-5.38Z"/>
      <path class="cls-28" d="M185.04,67.8c4.5-.23,8.16,3.21,8.18,7.69.03,4.48-3.59,8.3-8.09,8.52-4.5.23-8.16-3.21-8.18-7.69-.04-4.48,3.59-8.3,8.09-8.52Z"/>
      <path class="cls-30" d="M185.05,70.99c2.73-.14,4.95,1.96,4.97,4.67,0,2.73-2.19,5.03-4.91,5.17-2.73.14-4.95-1.96-4.96-4.67,0-2.73,2.19-5.03,4.91-5.17Z"/>
      <path class="cls-22" d="M185.07,72.17c2.07-.1,3.77,1.49,3.79,3.56,0,2.07-1.67,3.84-3.73,3.94-2.07.1-3.77-1.49-3.79-3.56,0-2.07,1.67-3.84,3.73-3.94Z"/>
      <path class="cls-31" d="M214.45,134.69c2.73-.14,4.95,1.96,4.97,4.67,0,2.73-2.19,5.04-4.91,5.17-2.73.14-4.95-1.96-4.97-4.67,0-2.73,2.19-5.03,4.91-5.17Z"/>
      <path class="cls-25" d="M214.46,136.62c1.65-.09,3,1.18,3.02,2.83,0,1.65-1.32,3.06-2.99,3.14-1.65.09-3-1.18-3.02-2.83,0-1.65,1.32-3.06,2.99-3.14Z"/>
      <path class="cls-24" d="M214.46,137.34c1.27-.07,2.29.9,2.29,2.15s-1.01,2.33-2.26,2.4c-1.27.07-2.29-.9-2.29-2.15s1.01-2.33,2.26-2.4Z"/>
      <path class="cls-49" d="M102.54,97.31c.19,0,.36.14.38.33,0,.19-.14.36-.33.38-.19,0-.36-.14-.38-.33,0-.19.14-.36.33-.38Z"/>
      <path class="cls-49" d="M203.02,108.11c.19,0,.37.14.38.33.02.19-.14.36-.33.38-.19,0-.36-.14-.38-.33,0-.19.14-.36.33-.38Z"/>
      <path class="cls-49" d="M76.03,108.11c.19,0,.36.14.38.33.02.19-.14.36-.33.38-.19,0-.36-.14-.38-.33,0-.19.14-.36.33-.38Z"/>
      <path class="cls-49" d="M99.83,51.22c.19,0,.36.14.38.33,0,.19-.14.36-.33.38-.19,0-.36-.14-.38-.33,0-.19.14-.36.33-.38Z"/>
      <path class="cls-49" d="M109.18,74.48c.19,0,.37.14.38.33,0,.19-.14.36-.33.38-.19,0-.36-.14-.38-.33,0-.19.14-.36.33-.38Z"/>
      <g class="cls-50">
        <path class="cls-49" d="M146.65,99.1c.35-.02.64.24.66.59.02.35-.24.64-.59.66s-.64-.24-.66-.59c-.02-.35.24-.64.59-.66Z"/>
      </g>
      <g class="cls-50">
        <path class="cls-49" d="M123.37,110.66c.35-.02.64.24.66.59.02.35-.24.64-.59.66-.35.02-.64-.24-.66-.59-.02-.35.24-.64.59-.66Z"/>
      </g>
      <g class="cls-50">
        <path class="cls-49" d="M121.84,69.36c.35-.02.64.24.66.59.02.35-.24.64-.59.66-.35.02-.64-.24-.66-.59-.02-.35.24-.64.59-.66Z"/>
      </g>
      <g class="cls-50">
        <path class="cls-49" d="M200.99,105.12c.54-.03.99.36,1.02.9.03.54-.36.99-.9,1.03-.54.03-.99-.37-1.02-.9-.04-.54.36-.99.9-1.03Z"/>
      </g>
      <g class="cls-50">
        <path class="cls-49" d="M157.4,116.13c.35-.02.64.24.66.59.02.35-.24.64-.59.66-.35.02-.64-.24-.66-.59-.02-.35.24-.64.59-.66Z"/>
      </g>
      <path class="cls-29" d="M172.38,86.22c1.28-.54,1.89-2.03,1.34-3.32-.54-1.28-2.03-1.89-3.32-1.34-1.29.54-1.89,2.03-1.34,3.32.54,1.28,2.03,1.89,3.32,1.34Z"/>
      <path class="cls-23" d="M177.71,146.58c1.28-.54,1.89-2.03,1.34-3.32-.54-1.28-2.03-1.89-3.32-1.34-1.29.54-1.89,2.03-1.34,3.32.54,1.28,2.03,1.89,3.32,1.34Z"/>
      <path class="cls-17" d="M88.32,176.62c.47-.19.68-.73.49-1.2-.19-.47-.73-.68-1.2-.49-.47.19-.68.73-.49,1.2.19.47.73.68,1.2.49Z"/>
      <path class="cls-18" d="M84.51,176.86c.59-.24.87-.94.62-1.53-.24-.59-.94-.87-1.53-.62-.59.24-.87.94-.63,1.53.24.59.94.87,1.53.62Z"/>
      <path class="cls-19" d="M171.86,149.9c.59-.24.87-.94.62-1.53-.24-.59-.94-.87-1.53-.62-.59.24-.87.94-.62,1.53.24.59.94.87,1.53.62Z"/>
      <path class="cls-20" d="M169.27,199.12c.59-.24.87-.94.62-1.53-.24-.59-.94-.87-1.53-.62-.59.24-.87.94-.62,1.53.24.59.94.87,1.53.62Z"/>
      <path class="cls-27" d="M161.84,211.53c.59-.24.87-.94.62-1.53-.24-.59-.94-.87-1.53-.62-.59.24-.87.94-.62,1.53.24.59.94.87,1.53.62Z"/>
      <path class="cls-34" d="M124.5,122.24c2.72-1.16,4.01-4.31,2.85-7.03-1.16-2.73-4.31-4.01-7.03-2.85-2.73,1.16-4.01,4.31-2.85,7.03,1.16,2.73,4.31,4.01,7.03,2.85Z"/>
      <path class="cls-16" d="M118.13,106.34c1.44-.61,2.1-2.26,1.49-3.7-.61-1.44-2.26-2.1-3.7-1.49-1.44.61-2.1,2.26-1.49,3.7.61,1.44,2.26,2.1,3.7,1.49Z"/>
      <path class="cls-33" d="M167.33,201.74c1.44-.61,2.1-2.26,1.49-3.7-.61-1.44-2.26-2.1-3.7-1.49-1.44.61-2.1,2.26-1.49,3.7.61,1.44,2.26,2.1,3.7,1.49Z"/>
      <path class="cls-35" d="M127.54,78.51c1.44-.61,2.1-2.26,1.49-3.7-.61-1.44-2.26-2.1-3.7-1.49-1.44.61-2.1,2.26-1.49,3.7.61,1.44,2.26,2.1,3.7,1.49Z"/>
    </g>
  </g>
</svg>