<?xml version="1.0" encoding="UTF-8"?>
<svg xmlns="http://www.w3.org/2000/svg" xmlns:xlink="http://www.w3.org/1999/xlink" version="1.1" viewBox="0 0 422 422">
  <defs>
    <style>
      .cls-1 {
        fill: url(#radial-gradient-7);
      }

      .cls-2 {
        fill: url(#radial-gradient-9);
      }

      .cls-3 {
        fill: url(#radial-gradient-19);
      }

      .cls-3, .cls-4, .cls-5, .cls-6, .cls-7, .cls-8, .cls-9, .cls-10, .cls-11, .cls-12, .cls-13, .cls-14, .cls-15, .cls-16, .cls-17, .cls-18, .cls-19, .cls-20, .cls-21, .cls-22, .cls-23, .cls-24, .cls-25, .cls-26 {
        isolation: isolate;
      }

      .cls-3, .cls-14 {
        mix-blend-mode: lighten;
      }

      .cls-4 {
        fill: url(#linear-gradient-8);
      }

      .cls-4, .cls-5, .cls-10, .cls-11, .cls-12, .cls-13, .cls-15, .cls-16, .cls-17, .cls-18, .cls-27, .cls-26 {
        mix-blend-mode: screen;
      }

      .cls-4, .cls-14, .cls-19, .cls-20, .cls-21, .cls-22, .cls-23, .cls-24 {
        opacity: .6;
      }

      .cls-28 {
        mix-blend-mode: multiply;
        opacity: .3;
      }

      .cls-29 {
        fill: url(#radial-gradient-16);
      }

      .cls-29, .cls-10, .cls-11, .cls-12, .cls-30, .cls-14, .cls-15, .cls-16, .cls-17, .cls-18, .cls-31 {
        fill-rule: evenodd;
      }

      .cls-5 {
        fill: url(#radial-gradient-22);
      }

      .cls-6 {
        fill: url(#radial-gradient-15);
      }

      .cls-6, .cls-7, .cls-8 {
        opacity: .5;
      }

      .cls-7 {
        fill: url(#radial-gradient-11);
      }

      .cls-8 {
        fill: url(#radial-gradient-13);
      }

      .cls-10 {
        fill: url(#radial-gradient-18);
      }

      .cls-11 {
        fill: url(#radial-gradient-21);
      }

      .cls-12 {
        fill: url(#radial-gradient-20);
      }

      .cls-30, .cls-32 {
        fill: red;
      }

      .cls-13 {
        fill: url(#radial-gradient);
        opacity: .7;
      }

      .cls-14 {
        fill: url(#radial-gradient-17);
      }

      .cls-33 {
        mix-blend-mode: hard-light;
      }

      .cls-34 {
        fill: url(#radial-gradient-12);
      }

      .cls-35 {
        fill: url(#radial-gradient-14);
      }

      .cls-36 {
        fill: url(#radial-gradient-10);
      }

      .cls-37 {
        fill: #fff;
      }

      .cls-15 {
        fill: url(#radial-gradient-5);
        opacity: .8;
      }

      .cls-16 {
        fill: url(#radial-gradient-3);
        opacity: .32;
      }

      .cls-17 {
        fill: url(#radial-gradient-4);
      }

      .cls-18 {
        fill: url(#radial-gradient-6);
      }

      .cls-19 {
        fill: url(#linear-gradient-7);
      }

      .cls-19, .cls-20, .cls-21, .cls-22, .cls-23, .cls-24 {
        mix-blend-mode: color-dodge;
      }

      .cls-20 {
        fill: url(#linear-gradient-5);
      }

      .cls-21 {
        fill: url(#linear-gradient-4);
      }

      .cls-22 {
        fill: url(#linear-gradient-6);
      }

      .cls-23 {
        fill: url(#linear-gradient-3);
      }

      .cls-24 {
        fill: url(#linear-gradient-2);
      }

      .cls-38 {
        opacity: .75;
      }

      .cls-39 {
        fill: #b9d4fc;
      }

      .cls-25 {
        fill: url(#linear-gradient);
        mix-blend-mode: darken;
      }

      .cls-31 {
        fill: url(#radial-gradient-2);
      }

      .cls-26 {
        fill: url(#radial-gradient-8);
      }
    </style>
    <radialGradient id="radial-gradient" cx="-85.42" cy="630.48" fx="-85.42" fy="630.48" r="1" gradientTransform="translate(12947.72 94217.64) scale(149.1 -149.1)" gradientUnits="userSpaceOnUse">
      <stop offset=".52" stop-color="#000"/>
      <stop offset=".75" stop-color="#0068ff"/>
      <stop offset=".91" stop-color="#fff" stop-opacity="0"/>
    </radialGradient>
    <radialGradient id="radial-gradient-2" cx="-85.22" cy="629.99" fx="-85.22" fy="629.99" r="1" gradientTransform="translate(9635.77 69884.12) scale(110.59 -110.59)" gradientUnits="userSpaceOnUse">
      <stop offset="0" stop-color="#331048"/>
      <stop offset=".28" stop-color="#300e44"/>
      <stop offset=".56" stop-color="#280b38"/>
      <stop offset=".83" stop-color="#1b0424"/>
      <stop offset="1" stop-color="#110015"/>
    </radialGradient>
    <radialGradient id="radial-gradient-3" cx="-85.22" cy="629.99" fx="-85.22" fy="629.99" r="1" gradientTransform="translate(9635.77 69884.12) scale(110.59 -110.59)" gradientUnits="userSpaceOnUse">
      <stop offset="0" stop-color="aqua"/>
      <stop offset=".37" stop-color="#00a4a4"/>
      <stop offset="1" stop-color="#000"/>
    </radialGradient>
    <radialGradient id="radial-gradient-4" cx="-84.72" cy="628.77" fx="-84.72" fy="628.77" r="1" gradientTransform="translate(5870.16 42593.67) scale(67.37 -67.37)" gradientUnits="userSpaceOnUse">
      <stop offset="0" stop-color="#c700ff"/>
      <stop offset=".04" stop-color="#bc00f1"/>
      <stop offset=".4" stop-color="#6d008b"/>
      <stop offset=".69" stop-color="#320040"/>
      <stop offset=".9" stop-color="#0d0011"/>
      <stop offset="1" stop-color="#000"/>
    </radialGradient>
    <radialGradient id="radial-gradient-5" cx="-85.12" cy="629.66" fx="-85.12" fy="629.66" r="1" gradientTransform="translate(8572.62 59305.65) scale(97.95 -94.03)" gradientUnits="userSpaceOnUse">
      <stop offset="0" stop-color="aqua"/>
      <stop offset=".12" stop-color="#00fafa"/>
      <stop offset=".24" stop-color="#00ecec"/>
      <stop offset=".37" stop-color="#00d5d5"/>
      <stop offset=".51" stop-color="#00b4b4"/>
      <stop offset=".65" stop-color="#008b8b"/>
      <stop offset=".79" stop-color="#005858"/>
      <stop offset=".93" stop-color="#001d1d"/>
      <stop offset="1" stop-color="#000"/>
    </radialGradient>
    <radialGradient id="radial-gradient-6" cx="-84.51" cy="628.25" fx="-84.51" fy="628.25" r="1" gradientTransform="translate(5155.28 36424.65) scale(57.63 -57.63)" gradientUnits="userSpaceOnUse">
      <stop offset="0" stop-color="#c700ff"/>
      <stop offset=".04" stop-color="#bc00f1"/>
      <stop offset=".4" stop-color="#6d008b"/>
      <stop offset=".69" stop-color="#320040"/>
      <stop offset=".9" stop-color="#0d0011"/>
      <stop offset="1" stop-color="#000"/>
    </radialGradient>
    <linearGradient id="linear-gradient" x1="210.9" y1="279.44" x2="300.28" y2="279.44" gradientTransform="translate(0 421.89) scale(1 -1)" gradientUnits="userSpaceOnUse">
      <stop offset="0" stop-color="#008676"/>
      <stop offset=".26" stop-color="#068a75"/>
      <stop offset=".59" stop-color="#179572"/>
      <stop offset=".98" stop-color="#34a86e"/>
      <stop offset="1" stop-color="#36a96e"/>
    </linearGradient>
    <radialGradient id="radial-gradient-7" cx="-83.27" cy="625.23" fx="-83.27" fy="625.23" r="1" gradientTransform="translate(2794.09 19836.94) scale(31.52 -31.52)" gradientUnits="userSpaceOnUse">
      <stop offset="0" stop-color="#ff0"/>
      <stop offset=".19" stop-color="#ffe400"/>
      <stop offset=".59" stop-color="#ffa000"/>
      <stop offset="1" stop-color="#f50"/>
    </radialGradient>
    <radialGradient id="radial-gradient-8" cx="-82.98" cy="624.52" fx="-82.98" fy="624.52" r="1" gradientTransform="translate(2588.12 17914.13) scale(28.51 -28.51)" gradientUnits="userSpaceOnUse">
      <stop offset="0" stop-color="#c2ffff"/>
      <stop offset=".1" stop-color="#bdf9f9"/>
      <stop offset=".23" stop-color="#b1e8e8"/>
      <stop offset=".37" stop-color="#9ccdcd"/>
      <stop offset=".52" stop-color="#7fa7a7"/>
      <stop offset=".68" stop-color="#5a7676"/>
      <stop offset=".85" stop-color="#2d3b3b"/>
      <stop offset="1" stop-color="#000"/>
    </radialGradient>
    <radialGradient id="radial-gradient-9" cx="-84.72" cy="628.76" fx="-84.72" fy="628.76" r="1" gradientTransform="translate(5918.24 42448.84) scale(67.07 -67.07)" gradientUnits="userSpaceOnUse">
      <stop offset="0" stop-color="#331048"/>
      <stop offset=".28" stop-color="#300e44"/>
      <stop offset=".56" stop-color="#280b38"/>
      <stop offset=".83" stop-color="#1b0424"/>
      <stop offset="1" stop-color="#110015"/>
    </radialGradient>
    <radialGradient id="radial-gradient-10" cx="-78.71" cy="614.08" fx="-78.71" fy="614.08" r="1" gradientTransform="translate(1181.61 7524.1) scale(11.79 -11.79)" gradientUnits="userSpaceOnUse">
      <stop offset="0" stop-color="#54ffff"/>
      <stop offset=".18" stop-color="#53fbff"/>
      <stop offset=".35" stop-color="#50efff"/>
      <stop offset=".52" stop-color="#4bdbff"/>
      <stop offset=".69" stop-color="#44c0ff"/>
      <stop offset=".85" stop-color="#3c9dff"/>
      <stop offset="1" stop-color="#37f"/>
    </radialGradient>
    <radialGradient id="radial-gradient-11" cx="-94.63" cy="652.96" fx="-94.63" fy="652.96" r="1" gradientTransform="translate(-689.19 -6224.33) rotate(-180) scale(9.97 -9.97)" gradientUnits="userSpaceOnUse">
      <stop offset="0" stop-color="#c86bff"/>
      <stop offset=".17" stop-color="#c365ff"/>
      <stop offset=".37" stop-color="#b656ff"/>
      <stop offset=".6" stop-color="#a03cff"/>
      <stop offset=".85" stop-color="#8319ff"/>
      <stop offset="1" stop-color="#6d00ff"/>
    </radialGradient>
    <linearGradient id="linear-gradient-2" x1="246.61" y1="147.94" x2="255.21" y2="139.28" gradientTransform="translate(0 421.89) scale(1 -1)" gradientUnits="userSpaceOnUse">
      <stop offset="0" stop-color="#c2ffff"/>
      <stop offset=".09" stop-color="#bcf7f7"/>
      <stop offset=".22" stop-color="#ace2e2"/>
      <stop offset=".37" stop-color="#92c0c0"/>
      <stop offset=".55" stop-color="#6e9191"/>
      <stop offset=".74" stop-color="#405454"/>
      <stop offset=".94" stop-color="#090b0b"/>
      <stop offset=".97" stop-color="#000"/>
    </linearGradient>
    <linearGradient id="linear-gradient-3" x1="241.78" y1="140.83" x2="247.53" y2="145.7" gradientTransform="translate(0 421.89) scale(1 -1)" gradientUnits="userSpaceOnUse">
      <stop offset="0" stop-color="#c2ffff"/>
      <stop offset=".09" stop-color="#bcf7f7"/>
      <stop offset=".22" stop-color="#ace2e2"/>
      <stop offset=".37" stop-color="#92c0c0"/>
      <stop offset=".55" stop-color="#6e9191"/>
      <stop offset=".74" stop-color="#405454"/>
      <stop offset=".94" stop-color="#090b0b"/>
      <stop offset=".97" stop-color="#000"/>
    </linearGradient>
    <radialGradient id="radial-gradient-12" cx="-72.58" cy="599.13" fx="-72.58" fy="599.13" r="1" gradientTransform="translate(687.49 3980.72) scale(6.41 -6.41)" gradientUnits="userSpaceOnUse">
      <stop offset="0" stop-color="#54ffff"/>
      <stop offset=".18" stop-color="#53fbff"/>
      <stop offset=".35" stop-color="#50efff"/>
      <stop offset=".52" stop-color="#4bdbff"/>
      <stop offset=".69" stop-color="#44c0ff"/>
      <stop offset=".85" stop-color="#3c9dff"/>
      <stop offset="1" stop-color="#37f"/>
    </radialGradient>
    <radialGradient id="radial-gradient-13" cx="-101.87" cy="670.65" fx="-101.87" fy="670.65" r="1" gradientTransform="translate(-329.33 -3492.01) rotate(-180) scale(5.42 -5.42)" gradientUnits="userSpaceOnUse">
      <stop offset="0" stop-color="#c86bff"/>
      <stop offset=".17" stop-color="#c365ff"/>
      <stop offset=".37" stop-color="#b656ff"/>
      <stop offset=".6" stop-color="#a03cff"/>
      <stop offset=".85" stop-color="#8319ff"/>
      <stop offset="1" stop-color="#6d00ff"/>
    </radialGradient>
    <linearGradient id="linear-gradient-4" x1="218.54" y1="286.1" x2="223.21" y2="281.4" gradientTransform="translate(0 421.89) scale(1 -1)" gradientUnits="userSpaceOnUse">
      <stop offset="0" stop-color="#c2ffff"/>
      <stop offset=".09" stop-color="#bcf7f7"/>
      <stop offset=".22" stop-color="#ace2e2"/>
      <stop offset=".37" stop-color="#92c0c0"/>
      <stop offset=".55" stop-color="#6e9191"/>
      <stop offset=".74" stop-color="#405454"/>
      <stop offset=".94" stop-color="#090b0b"/>
      <stop offset=".97" stop-color="#000"/>
    </linearGradient>
    <linearGradient id="linear-gradient-5" x1="214.36" y1="280.91" x2="217.47" y2="283.55" gradientTransform="translate(0 421.89) scale(1 -1)" gradientUnits="userSpaceOnUse">
      <stop offset="0" stop-color="#c2ffff"/>
      <stop offset=".09" stop-color="#bcf7f7"/>
      <stop offset=".22" stop-color="#ace2e2"/>
      <stop offset=".37" stop-color="#92c0c0"/>
      <stop offset=".55" stop-color="#6e9191"/>
      <stop offset=".74" stop-color="#405454"/>
      <stop offset=".94" stop-color="#090b0b"/>
      <stop offset=".97" stop-color="#000"/>
    </linearGradient>
    <radialGradient id="radial-gradient-14" cx="-68.84" cy="589.98" fx="-68.84" fy="589.98" r="1" gradientTransform="translate(620.92 3131.57) scale(5.01 -5.01)" gradientUnits="userSpaceOnUse">
      <stop offset="0" stop-color="#54ffff"/>
      <stop offset=".18" stop-color="#53fbff"/>
      <stop offset=".35" stop-color="#50efff"/>
      <stop offset=".52" stop-color="#4bdbff"/>
      <stop offset=".69" stop-color="#44c0ff"/>
      <stop offset=".85" stop-color="#3c9dff"/>
      <stop offset="1" stop-color="#37f"/>
    </radialGradient>
    <radialGradient id="radial-gradient-15" cx="-106.32" cy="681.51" fx="-106.32" fy="681.51" r="1" gradientTransform="translate(-173.68 -2707.9) rotate(-180) scale(4.23 -4.23)" gradientUnits="userSpaceOnUse">
      <stop offset="0" stop-color="#c86bff"/>
      <stop offset=".17" stop-color="#c365ff"/>
      <stop offset=".37" stop-color="#b656ff"/>
      <stop offset=".6" stop-color="#a03cff"/>
      <stop offset=".85" stop-color="#8319ff"/>
      <stop offset="1" stop-color="#6d00ff"/>
    </radialGradient>
    <linearGradient id="linear-gradient-6" x1="273.06" y1="250.34" x2="276.72" y2="246.65" gradientTransform="translate(0 421.89) scale(1 -1)" gradientUnits="userSpaceOnUse">
      <stop offset="0" stop-color="#c2ffff"/>
      <stop offset=".09" stop-color="#bcf7f7"/>
      <stop offset=".22" stop-color="#ace2e2"/>
      <stop offset=".37" stop-color="#92c0c0"/>
      <stop offset=".55" stop-color="#6e9191"/>
      <stop offset=".74" stop-color="#405454"/>
      <stop offset=".94" stop-color="#090b0b"/>
      <stop offset=".97" stop-color="#000"/>
    </linearGradient>
    <linearGradient id="linear-gradient-7" x1="269.01" y1="245.64" x2="271.46" y2="247.72" gradientTransform="translate(0 421.89) scale(1 -1)" gradientUnits="userSpaceOnUse">
      <stop offset="0" stop-color="#c2ffff"/>
      <stop offset=".09" stop-color="#bcf7f7"/>
      <stop offset=".22" stop-color="#ace2e2"/>
      <stop offset=".37" stop-color="#92c0c0"/>
      <stop offset=".55" stop-color="#6e9191"/>
      <stop offset=".74" stop-color="#405454"/>
      <stop offset=".94" stop-color="#090b0b"/>
      <stop offset=".97" stop-color="#000"/>
    </linearGradient>
    <radialGradient id="radial-gradient-16" cx="-85.02" cy="629.51" fx="-85.02" fy="629.51" r="1" gradientTransform="translate(7701.93 55728.26) scale(88.11 -88.11)" gradientUnits="userSpaceOnUse">
      <stop offset=".24" stop-color="#9a0000"/>
      <stop offset=".32" stop-color="#ab0f00"/>
      <stop offset=".49" stop-color="#d93500"/>
      <stop offset=".61" stop-color="#f50"/>
      <stop offset=".66" stop-color="#ff7100"/>
      <stop offset=".78" stop-color="#ffb900"/>
      <stop offset=".9" stop-color="#ff0"/>
    </radialGradient>
    <radialGradient id="radial-gradient-17" cx="-85.42" cy="630.48" fx="-85.42" fy="630.48" r="1" gradientTransform="translate(12959.85 94288.59) scale(149.24 -149.24)" gradientUnits="userSpaceOnUse">
      <stop offset=".7" stop-color="#090902"/>
      <stop offset=".72" stop-color="#3c3c0d"/>
      <stop offset=".73" stop-color="#6a6a17"/>
      <stop offset=".74" stop-color="#929220"/>
      <stop offset=".75" stop-color="#b4b428"/>
      <stop offset=".77" stop-color="#cfcf2e"/>
      <stop offset=".78" stop-color="#e4e433"/>
      <stop offset=".8" stop-color="#f3f336"/>
      <stop offset=".82" stop-color="#fcfc38"/>
      <stop offset=".85" stop-color="#ffff39"/>
      <stop offset=".86" stop-color="#eeee35"/>
      <stop offset=".89" stop-color="#c2c22b"/>
      <stop offset=".94" stop-color="#7a7a1b"/>
      <stop offset=".99" stop-color="#1a1a05"/>
      <stop offset="1" stop-color="#000"/>
    </radialGradient>
    <radialGradient id="radial-gradient-18" cx="-85.22" cy="629.99" fx="-85.22" fy="629.99" r="1" gradientTransform="translate(9637.32 69895.71) scale(110.61 -110.61)" gradientUnits="userSpaceOnUse">
      <stop offset=".74" stop-color="#000"/>
      <stop offset=".78" stop-color="#001"/>
      <stop offset=".87" stop-color="#000040"/>
      <stop offset=".99" stop-color="#00008a"/>
      <stop offset="1" stop-color="#000092"/>
    </radialGradient>
    <linearGradient id="linear-gradient-8" x1="151.02" y1="296.76" x2="223.42" y2="213.49" gradientTransform="translate(0 421.89) scale(1 -1)" gradientUnits="userSpaceOnUse">
      <stop offset="0" stop-color="#c2ffff"/>
      <stop offset=".33" stop-color="#7aa1a1"/>
      <stop offset=".65" stop-color="#384a4a"/>
      <stop offset=".87" stop-color="#0f1414"/>
      <stop offset=".97" stop-color="#000"/>
    </linearGradient>
    <radialGradient id="radial-gradient-19" cx="-84.24" cy="630.27" fx="-84.24" fy="630.27" r="1" gradientTransform="translate(-18278.49 56352.12) rotate(26.14) scale(96.2 -92.87)" gradientUnits="userSpaceOnUse">
      <stop offset="0" stop-color="#f60"/>
      <stop offset=".04" stop-color="#f16000"/>
      <stop offset=".4" stop-color="#8b3700"/>
      <stop offset="1" stop-color="#fff" stop-opacity="0"/>
    </radialGradient>
    <radialGradient id="radial-gradient-20" cx="-74.13" cy="602.31" fx="-74.13" fy="602.31" r="1" gradientTransform="translate(756.97 4413.39) scale(7.24 -7.1)" gradientUnits="userSpaceOnUse">
      <stop offset="0" stop-color="#00cfff"/>
      <stop offset=".04" stop-color="#00c4f1"/>
      <stop offset=".4" stop-color="#00718b"/>
      <stop offset=".69" stop-color="#003440"/>
      <stop offset=".9" stop-color="#000e11"/>
      <stop offset="1" stop-color="#000"/>
    </radialGradient>
    <radialGradient id="radial-gradient-21" cx="-70.44" cy="593.13" fx="-70.44" fy="593.13" r="1" gradientTransform="translate(663.21 3386.02) scale(5.53 -5.42)" gradientUnits="userSpaceOnUse">
      <stop offset="0" stop-color="#00cfff"/>
      <stop offset=".04" stop-color="#00c4f1"/>
      <stop offset=".4" stop-color="#00718b"/>
      <stop offset=".69" stop-color="#003440"/>
      <stop offset=".9" stop-color="#000e11"/>
      <stop offset="1" stop-color="#000"/>
    </radialGradient>
    <radialGradient id="radial-gradient-22" cx="-85.01" cy="629.43" fx="-85.01" fy="629.43" r="1" gradientTransform="translate(7582.83 53955.85) scale(87.18 -85.47)" gradientUnits="userSpaceOnUse">
      <stop offset="0" stop-color="#00cfff"/>
      <stop offset=".04" stop-color="#00c4f1"/>
      <stop offset=".4" stop-color="#00718b"/>
      <stop offset=".91" stop-color="#fff" stop-opacity="0"/>
    </radialGradient>
  </defs>
  <!-- Generator: Adobe Illustrator 28.7.0, SVG Export Plug-In . SVG Version: 1.2.0 Build 55)  -->
  <g class="cls-9">
    <g id="Layer_1">
      <g class="cls-27">
        <g class="cls-28">
          <path class="cls-30" d="M330.8,212.17c0,4.48-.27,8.91-.8,13.24-.09.85-.21,1.68-.34,2.51-.21,1.52-.46,3.03-.74,4.51-4.98,26.88-19.69,50.36-40.35,66.63-1.05.83-2.11,1.63-3.19,2.43-18.29,13.37-40.81,21.25-65.19,21.25-21.32,0-41.24-6.04-58.13-16.48-.83-.51-1.65-1.04-2.48-1.58-30.12-19.74-50-53.81-50-92.51,0-24.89,8.22-47.86,22.1-66.33,1.17-1.54,2.36-3.06,3.6-4.53,20.29-24.28,50.8-39.71,84.9-39.71,60.48,0,109.64,48.57,110.57,108.84,0,.58.02,1.17.02,1.75l.04-.02Z"/>
          <path class="cls-30" d="M330.8,212.17c0,40.69-21.97,76.24-54.69,95.45-16.4,9.61-35.5,15.14-55.88,15.14s-41.24-6.04-58.13-16.48c-31.5-19.48-52.46-54.34-52.46-94.09,0-1.43.04-2.85.09-4.29,1.56,40.48,24.84,75.36,58.55,93.33,15.49,8.27,33.18,12.94,51.97,12.94s36.97-4.82,52.62-13.3c33.34-18.06,56.34-52.76,57.88-92.98.05,1.42.09,2.85.09,4.29l-.04-.02Z"/>
          <path class="cls-30" d="M317.75,159.95l-8.11,5.51-6.92,4.71c-14.73-32.63-46.12-55.17-82.46-55.17-27.66,0-52.46,13.05-69.21,33.69l-13.3-10.15c5.05-5.65,10.68-10.78,16.77-15.3,11.28-8.34,24.19-14.59,38.17-18.17,8.82-2.27,18.04-3.47,27.57-3.47,20.59,0,39.86,5.63,56.36,15.42,17.32,10.27,31.59,25.16,41.13,42.94v-.02Z"/>
          <path class="cls-30" d="M205.37,321.77c-54.06-7.26-95.74-53.56-95.74-109.6,0-20.1,5.36-38.94,14.73-55.19l14.7,10.39c-6.57,13.4-10.27,28.63-10.27,44.78,0,37.87,20.38,70.7,50.13,86.72l26.43,22.88.02.02Z"/>
          <path class="cls-30" d="M330.8,212.17c0,46.51-28.7,86.32-69.37,102.64l9.95-22.1c24.29-17.48,40.26-47.03,40.26-80.56,0-12.04-2.05-23.57-5.83-34.19l15.49-10.66c6.09,13.71,9.49,28.9,9.49,44.87Z"/>
          <path class="cls-30" d="M148.85,151.81l-3.38,4.27-13.76-10.23c1.17-1.54,2.36-3.06,3.6-4.53l13.54,10.52v-.02Z"/>
          <path class="cls-30" d="M276.11,307.62c-16.39,9.61-35.5,15.14-55.88,15.14s-41.24-6.04-58.13-16.48c-.32-.97-.27-1.93.27-2.87.57-1.22,2.71-1.9,5.9-2.18,11.54-1.05,36.92,2.82,51.95,2.18,21.81-.12,45.31-2.92,52.62-2.52.99.05,1.68.16,2.04.35.05.04.09.05.14.07,2.39,1.29,2.78,4.43,1.1,6.32v-.02Z"/>
          <path class="cls-32" d="M328.96,232.46c-9.53,51.38-54.59,90.3-108.73,90.3-21.32,0-41.24-6.04-58.13-16.48,40.07-2.9,77.55-9.07,110.34-21.14l1.77-5.28c26.84-7.42,45.81-22.8,54.75-47.4Z"/>
          <path class="cls-32" d="M164.12,218.86c0,2.53-1.65,4.6-5.05,4.6s-6.16-2.05-6.16-4.6,2.76-4.6,6.16-4.6,5.05,2.05,5.05,4.6Z"/>
          <path class="cls-32" d="M330.8,212.17c0,4.48-.27,8.91-.8,13.24-2-1.03-4.41-2.76-4.98-5.35-.48-2.2,3.13-6.55,5.74-9.63,0,.58.02,1.17.02,1.75l.02-.02Z"/>
          <path class="cls-32" d="M309.64,165.44l-6.92,4.71c-14.73-32.63-46.12-55.17-82.46-55.17,35.18-2.6,75.92,17.95,89.38,50.46Z"/>
          <path class="cls-32" d="M220.25,114.98c-27.66,0-52.46,13.05-69.21,33.7l-13.3-10.15c5.05-5.65,10.68-10.78,16.77-15.3l-4.09,5.86c25.99-11.12,48.8-14.68,69.83-14.09v-.02Z"/>
          <path class="cls-32" d="M155.49,135.92c-1.47-.11-2.94.19-4.23.9-.97.55-1.45,1.08-.64,1.59,1.31.81,7.47-1.42,6.89-2.04-.27-.28-1.13-.41-2.02-.48v.02Z"/>
          <path class="cls-32" d="M163.41,129.9c-1.82,0-4.57.11-3.35,1.12s6.09-.11,5.88-.57c-.19-.46-2.53-.57-2.53-.57v.02Z"/>
          <path class="cls-32" d="M271.08,120.36c-22.34-13-50.85-16.43-77.23-10.36l-1.15-4.96c8.82-2.27,18.04-3.47,27.57-3.47,17.83,0,34.69,4.21,49.59,11.72l1.24,7.07h-.02Z"/>
          <path class="cls-32" d="M288.95,143.15c0,3.26-2.64,5.9-5.9,5.9s-5.9-2.64-5.9-5.9,2.64-5.9,5.9-5.9,5.9,2.64,5.9,5.9Z"/>
          <path class="cls-30" d="M137.81,231.36s-3.95,26.79,0,27.09c3.95.3,0-27.09,0-27.09Z"/>
          <path class="cls-30" d="M145.83,255.6s-4.05,16.34,0,15.94c4.06-.41,0-15.94,0-15.94Z"/>
          <path class="cls-30" d="M157.39,263.57s-2.12,12.7-1.52,14.04c.6,1.35,3.65,6.2,4.57,4.67.55-.92-.43-2.92-1.27-4.36-.69-1.17-1.12-2.48-1.19-3.84l-.58-10.52Z"/>
          <path class="cls-32" d="M167.34,282.58s-1.72,7.93-.41,8.43c1.31.5.41-8.43.41-8.43Z"/>
          <path class="cls-32" d="M148.87,246.83c0,1.54-.28,2.8-.62,2.8s-.62-1.26-.62-2.8.28-2.8.62-2.8.62,1.26.62,2.8Z"/>
          <path class="cls-32" d="M154.45,259.81c0,2.32-.5,4.21-1.11,4.21s-1.12-1.88-1.12-4.21.5-4.21,1.12-4.21,1.11,1.88,1.11,4.21Z"/>
          <path class="cls-32" d="M152.52,275.86s-2.57,8.73-.3,8.8c2.27.07.3-8.8.3-8.8Z"/>
          <path class="cls-32" d="M162.81,291.38c.54,0,.97-.44.97-.97s-.44-.97-.97-.97-.97.44-.97.97.44.97.97.97Z"/>
          <path class="cls-32" d="M293.73,280.87c-1.84,2.78-3.82,11.54-5.12,18.22-1.04.83-2.11,1.63-3.19,2.43-.14-1.4-.28-3.13-.37-5.28-.48-11.56,3.67-17.46,5.83-19.35,2.16-1.89,5.95-.67,2.85,3.98Z"/>
          <path class="cls-32" d="M326.59,191.79c0,2.43-1.2,4.39-2.67,4.39s-2.34-1.96-2.34-4.39,1.36-3.31,2.83-3.31,2.16.88,2.16,3.31h.02Z"/>
        </g>
        <path class="cls-13" d="M316.3,316.41c58.23-58.23,58.23-152.63,0-210.86-58.23-58.23-152.64-58.23-210.86,0-58.23,58.23-58.23,152.63,0,210.86,58.23,58.23,152.63,58.23,210.86,0Z"/>
        <path class="cls-31" d="M321.45,212.17c0,.94,0,1.86-.04,2.78v1.56c-.04.71-.05,1.4-.11,2.11,0,.16,0,.32-.04.48-.04.85-.11,1.68-.2,2.51-.04.37-.05.74-.11,1.1-.07.78-.16,1.58-.25,2.36,0,.11-.04.23-.04.35-.04.41-.11.82-.14,1.24,0,.14-.04.28-.05.43-.03.28-.09.57-.12.83-.05.46-.12.92-.2,1.36-.03.18-.03.34-.09.51-.07.53-.16,1.04-.27,1.56,0,.07,0,.14-.04.21-.05.3-.11.6-.16.9v.04s0,.11-.04.14c-.04.16-.05.34-.11.5,0,.16-.04.32-.09.48-.04.16-.07.32-.11.48-.04.11-.04.23-.07.34,0,.14-.04.28-.07.41,0,.04,0,.05-.04.11-.05.23-.11.44-.14.67-.07.34-.14.67-.23,1.01-.04.19-.09.41-.12.6-.05.27-.11.51-.18.78-.07.32-.16.64-.23.94-.04.16-.07.3-.11.46-.04.12-.05.27-.11.39v.14c0,.05-.04.12-.04.2-.12.48-.27.96-.41,1.43-.05.25-.11.5-.19.76-.09.34-.2.65-.28.99-.05.18-.11.34-.14.48-.04.18-.11.34-.16.53-.04.16-.11.32-.14.48-.07.25-.14.48-.25.73-.11.34-.21.69-.32,1.03-.04.07-.05.12-.07.19-.04.07-.05.14-.07.21-.04.09-.04.16-.07.23-.05.19-.12.41-.2.6-.05.16-.11.32-.16.46-.07.23-.16.46-.23.67-.2.53-.37,1.08-.57,1.61-.11.28-.21.57-.34.87-.05.18-.12.34-.2.51-.12.32-.27.64-.39.96-.05.12-.11.27-.18.41v.03s-.05.12-.09.2c-.09.21-.18.43-.27.64-.04.12-.11.27-.16.39-.07.14-.12.26-.18.41-.04.09-.07.16-.11.23v.04c-.05.11-.11.23-.16.34-.21.51-.42,1.01-.65,1.54-.11.21-.2.42-.28.64-.32.71-.64,1.38-.96,2.07,0,.04-.04.05-.04.09-.04.05-.04.11-.07.14-.07.16-.16.32-.23.48-.09.2-.19.39-.27.57-.09.18-.18.34-.25.48-.18.32-.34.64-.48.94-.04.05-.04.11-.09.16-.11.21-.21.41-.32.62-.04.05-.04.09-.05.11-.12.25-.27.48-.39.73-.05.09-.11.18-.12.25-.05.12-.12.25-.2.35-.04.07-.07.12-.09.18-.25.44-.48.89-.71,1.31,0,0-.05.11-.09.16l-.04.04c-.05.12-.12.25-.19.37-.23.41-.46.78-.69,1.17-.05.11-.11.19-.18.3-.14.25-.28.48-.44.73-.14.27-.3.51-.46.78-.23.37-.46.74-.71,1.1,0,.04-.04.09-.07.12-.11.16-.19.32-.28.46-.05.11-.12.19-.2.3-.34.55-.67,1.08-1.04,1.61-.12.21-.27.41-.41.62-.04.04-.05.07-.07.11-.05.05-.09.11-.12.18-.04.04-.05.09-.07.11-.44.65-.9,1.31-1.38,1.98-.07.09-.12.18-.19.27-.05.11-.12.2-.2.26-.21.3-.41.59-.64.85-.07.11-.16.23-.26.34-.14.21-.32.43-.48.64-.27.34-.51.69-.76,1.01-.04.05-.09.12-.14.2l-.04.04s-.12.18-.19.26c-.35.48-.73.94-1.1,1.38-.23.3-.48.58-.71.87-.11.14-.23.28-.34.41-.62.76-1.26,1.51-1.91,2.23-.09.11-.16.2-.25.27-.05.07-.11.14-.18.19-.46.53-.94,1.04-1.4,1.54-.14.18-.3.34-.46.48-.04.05-.11.11-.14.16l-.18.18c-.19.23-.41.46-.64.67-.05.07-.12.16-.21.23-.03.04-.03.05-.07.07-.09.09-.18.2-.27.27-.3.32-.62.64-.94.94-.04.05-.11.11-.18.18,0,.04-.04.07-.11.11-.04.04-.05.07-.09.09-.41.41-.83.85-1.26,1.24-.23.25-.48.48-.71.69-.07.09-.16.16-.23.23-.11.11-.21.19-.32.28-.43.41-.89.83-1.35,1.24-.07.07-.16.16-.27.23-.27.27-.57.51-.85.76-.11.11-.23.21-.34.3-.14.12-.27.27-.41.37-.04.04-.07.05-.11.09-.42.39-.87.76-1.31,1.11-.16.14-.34.28-.48.41-.11.09-.2.16-.28.23-.07.05-.14.11-.21.18-.2.18-.41.34-.64.51-.18.14-.35.28-.55.42-.11.11-.23.2-.34.28-.21.18-.42.34-.64.48-.11.11-.21.18-.32.27-.14.11-.3.23-.44.34-.48.37-.96.74-1.45,1.08-.11.09-.19.16-.3.21,0,.04-.04.04-.04.04-.11.07-.19.16-.32.23-.18.12-.34.25-.5.35-.07.05-.14.11-.21.16-.23.16-.46.34-.69.48-.34.25-.69.48-1.03.71-.35.25-.73.5-1.1.74-.09.07-.2.12-.3.2-.11.09-.25.18-.37.25-.25.16-.48.32-.73.48-.11.09-.23.16-.35.23-.18.11-.34.23-.53.34-.07.05-.16.11-.23.14-.04.04-.11.07-.16.11-.18.11-.34.21-.51.34-.18.11-.35.21-.53.32-.23.14-.46.28-.69.42-.27.16-.53.32-.8.48-.09.04-.16.11-.25.14-.07.04-.12.07-.2.11-.51.3-1.04.6-1.58.9-.16.11-.32.2-.48.27-.11.07-.23.14-.35.2-.21.12-.44.26-.67.37-.35.19-.71.39-1.08.57-.34.2-.67.35-1.01.53-.11.05-.2.11-.32.16-.27.14-.51.26-.78.41-.25.12-.5.25-.74.37l-1.81.87s-.18.09-.26.11c-.09.04-.2.09-.28.12-.81.39-1.63.76-2.44,1.1-.3.12-.62.27-.94.41h-.04c-.57.23-1.13.48-1.7.69-.34.16-.71.3-1.04.42-.12.05-.27.11-.41.16-2.04.78-4.09,1.52-6.18,2.18-.25.09-.5.18-.74.25-.46.14-.94.28-1.38.41-.57.18-1.15.34-1.72.48-.46.12-.92.27-1.38.37-.3.09-.6.18-.92.25-.3.09-.6.16-.9.23-.57.14-1.15.28-1.74.41-.05,0-.11.04-.2.04-.07,0-.14.04-.21.04-.69.16-1.38.3-2.07.46h-.07c-1.95.39-3.9.73-5.86,1.03-.23.04-.44.05-.65.11-.23.04-.44.05-.65.09-.21.04-.43.05-.64.09-.3.04-.6.07-.9.11-.11,0-.21.04-.32.04s-.2,0-.28.04c-.53.05-1.04.11-1.58.18h-.03c-.12,0-.27.04-.41.04-.6.05-1.22.11-1.82.16-.34.04-.66.05-1.01.07-.12,0-.27.04-.39.04h-.39c-.34.04-.65.04-.99.05-.25,0-.48.04-.71.04-.12,0-.25,0-.37.04h-.89c-.19,0-.41.03-.6.03h-1.43c-.64,0-1.29.04-1.93.04h-.34c-2.64,0-5.24-.09-7.81-.28-2.37-.16-4.73-.39-7.05-.71h-.12c-.8-.11-1.61-.21-2.39-.35-.85-.11-1.68-.26-2.5-.41-.83-.14-1.66-.32-2.5-.48s-1.65-.34-2.46-.53c-.83-.2-1.65-.39-2.46-.6-1.61-.41-3.22-.85-4.8-1.33-1.61-.48-3.17-1.01-4.74-1.56-2.35-.82-4.66-1.72-6.9-2.71-.76-.34-1.52-.66-2.27-1.01-3.19-1.45-6.3-3.06-9.31-4.82-.94-.53-1.88-1.08-2.8-1.66-.19-.12-.41-.27-.62-.41-.64-.37-1.24-.78-1.84-1.19-.94-.62-1.88-1.24-2.8-1.89-.9-.64-1.79-1.27-2.67-1.93,0,0-.04,0-.05-.04-.9-.67-1.79-1.36-2.66-2.05-.8-.64-1.59-1.27-2.36-1.93-.09-.04-.18-.11-.25-.2-.87-.73-1.7-1.45-2.53-2.21-.71-.64-1.42-1.27-2.11-1.93-.12-.11-.25-.21-.37-.34-.11-.09-.19-.18-.28-.26-.05-.04-.11-.11-.16-.16-.66-.64-1.31-1.29-1.95-1.93,0,0-.03-.04-.05-.05-.76-.78-1.52-1.58-2.27-2.37-.78-.82-1.52-1.67-2.25-2.5-.07-.05-.12-.11-.16-.18-.66-.76-1.31-1.52-1.95-2.3-.07-.07-.12-.12-.14-.2-.21-.25-.41-.48-.6-.73-.23-.28-.46-.57-.69-.87-.27-.32-.51-.64-.74-.94-.11-.11-.19-.23-.27-.35-.07-.09-.16-.19-.21-.28-.51-.67-1.03-1.36-1.52-2.05-.55-.74-1.08-1.49-1.59-2.25-.11-.14-.21-.28-.32-.44-.04-.04-.04-.05-.05-.09-.11-.16-.21-.32-.32-.48-.34-.51-.71-1.04-1.03-1.58-.18-.25-.34-.49-.48-.76-.19-.28-.39-.58-.57-.89-.34-.55-.67-1.08-1.01-1.65-.09-.11-.16-.23-.21-.34-.11-.2-.21-.36-.32-.55-.46-.78-.92-1.59-1.36-2.39-.04-.07-.09-.16-.12-.23-.3-.53-.58-1.06-.87-1.59-.19-.39-.41-.78-.6-1.17l-.04-.04c-.25-.48-.48-.96-.73-1.45v-.04s-.04-.04-.04-.05c-.19-.41-.41-.81-.58-1.22-.18-.34-.34-.69-.48-1.01-.11-.26-.25-.51-.35-.78-.11-.23-.19-.46-.3-.67-.19-.42-.39-.87-.57-1.27-.11-.25-.21-.48-.32-.72-.14-.34-.28-.66-.41-.99-.14-.34-.28-.69-.41-1.04-.11-.26-.23-.57-.34-.85-.18-.48-.35-.94-.53-1.38-.12-.32-.25-.64-.36-.96-.05-.16-.11-.3-.16-.46-.14-.39-.28-.78-.41-1.15-.12-.35-.27-.73-.37-1.08,0-.04-.04-.07-.04-.11-.09-.23-.16-.48-.25-.71-.05-.18-.11-.34-.18-.51-.04-.09-.05-.19-.07-.27-.07-.19-.12-.39-.19-.57-.18-.57-.34-1.1-.5-1.66-.11-.34-.21-.69-.3-1.03-.05-.18-.11-.34-.16-.51-.14-.55-.3-1.08-.43-1.65-.12-.44-.25-.89-.34-1.33-.04-.16-.09-.34-.12-.48-.07-.3-.14-.58-.21-.87,0-.05,0-.11-.04-.18-.04-.11-.04-.19-.07-.28-.03-.11-.05-.25-.09-.35-.05-.28-.12-.58-.19-.87-.19-.85-.35-1.68-.53-2.55-.04-.16-.05-.32-.09-.48-.09-.41-.16-.83-.23-1.24-.09-.49-.18-1.01-.27-1.49-.09-.51-.18-1.03-.25-1.56-.04-.25-.07-.48-.11-.73,0-.09,0-.16-.04-.23-.04-.27-.07-.57-.11-.83,0-.12-.04-.27-.04-.39,0-.11-.03-.21-.03-.34-.04-.16-.04-.3-.05-.46-.04-.21-.05-.41-.07-.64,0-.11-.04-.2-.04-.28v-.04c-.03-.41-.09-.81-.12-1.24,0-.09,0-.18-.03-.27,0-.11,0-.19-.04-.28,0-.11-.03-.25-.03-.35-.09-.8-.14-1.61-.19-2.43-.04-.34-.04-.65-.07-1.01,0-.32-.03-.62-.05-.94v-.62c0-.39-.04-.78-.04-1.15-.05-1.4-.09-2.81-.09-4.25,0-.78,0-1.54.04-2.34,0-.64.04-1.26.05-1.91v-.04c.04-.92.07-1.82.12-2.73.04-.74.11-1.49.18-2.25.03-.64.11-1.29.18-1.91.05-.62.12-1.22.19-1.82.07-.57.14-1.15.21-1.74.35-2.69.8-5.35,1.36-7.95.12-.62.26-1.24.41-1.82.51-2.34,1.12-4.62,1.81-6.9.18-.62.35-1.24.55-1.82.03-.07.03-.14.07-.21.26-.81.51-1.61.8-2.43.35-1.04.73-2.09,1.12-3.12.5-1.33,1.03-2.66,1.59-3.97.41-.94.8-1.88,1.24-2.8.48-1.06.97-2.09,1.47-3.1,0-.03.04-.09.07-.12.5-1.04,1.03-2.07,1.59-3.1.53-1.01,1.08-2.02,1.66-3.01,0-.04.04-.04.04-.07,2.21-3.86,4.67-7.58,7.36-11.15,1.15-1.54,2.36-3.06,3.61-4.53.78-.94,1.59-1.88,2.43-2.78,1.26-1.42,2.55-2.8,3.9-4.14.71-.71,1.4-1.42,2.12-2.11.64-.62,1.31-1.24,1.97-1.82,2.11-1.93,4.27-3.77,6.51-5.51.53-.41,1.06-.81,1.61-1.22.21-.18.43-.34.65-.48,1.49-1.11,3.01-2.18,4.55-3.21.51-.34,1.03-.69,1.56-1.01.23-.14.46-.3.69-.43.57-.37,1.13-.71,1.7-1.06.18-.11.34-.21.53-.32.65-.41,1.33-.78,2-1.17.78-.44,1.54-.87,2.32-1.29,3.88-2.11,7.9-3.97,12.06-5.56.81-.34,1.66-.64,2.5-.94.85-.3,1.68-.6,2.53-.88.85-.28,1.7-.57,2.55-.83,3.86-1.2,7.83-2.19,11.88-2.96.99-.19,1.98-.37,2.96-.53.28-.04.58-.09.87-.12.89-.14,1.79-.26,2.67-.39.23-.04.48-.05.71-.09.82-.11,1.61-.19,2.43-.26.32-.04.64-.07.94-.11.89-.09,1.77-.16,2.66-.19.27-.04.53-.04.8-.05,1.03-.07,2.05-.11,3.1-.14h.19c1.15-.04,2.34-.05,3.51-.05h.12c.71,0,1.4,0,2.11.03h.87c.26,0,.51,0,.78.04h.55c.41,0,.8,0,1.2.03.19,0,.39,0,.58.04h.44c.16,0,.34,0,.48.04.43,0,.85.04,1.28.07.39.03.78.05,1.17.11.11,0,.23,0,.34.04.11,0,.25,0,.35.04.25,0,.48.04.71.05.35.04.73.07,1.08.11.34.03.69.07,1.01.11.21.04.44.05.65.09h.18c.78.11,1.56.19,2.34.32.05,0,.11,0,.14.03.9.12,1.81.27,2.71.43.09,0,.18.03.27.03.07,0,.12.04.19.04.11,0,.21.04.34.05.73.12,1.45.26,2.16.41.23.04.48.09.71.14.3.05.6.12.88.19.23.04.46.11.71.14.11.04.25.05.37.09.14.03.28.07.44.11.73.16,1.45.34,2.19.53.37.09.74.19,1.1.28.5.12,1.01.27,1.52.41.25.05.49.12.74.21.62.18,1.24.35,1.84.55.05,0,.11.04.18.05.44.12.89.27,1.31.41.34.11.69.21,1.01.34h.05c.85.28,1.68.57,2.51.88.14.04.3.11.44.16.41.16.82.3,1.24.48.43.14.85.32,1.29.48.34.14.71.28,1.04.42.62.25,1.22.48,1.82.76.55.23,1.08.46,1.61.71.09.04.16.05.23.11.73.34,1.45.67,2.18,1.01.71.34,1.4.67,2.11,1.03.57.27,1.11.55,1.66.85l1.12.6c.73.41,1.45.78,2.16,1.2.09.04.18.09.27.14.67.39,1.36.78,2.02,1.19.76.44,1.5.9,2.25,1.38.74.48,1.49.94,2.21,1.45.73.48,1.45.97,2.18,1.49.71.48,1.43,1.01,2.12,1.54.41.32.83.64,1.24.94.41.28.81.6,1.2.92.57.46,1.15.92,1.7,1.38,1.24.99,2.43,2,3.59,3.05.2.16.41.34.6.53.57.51,1.15,1.04,1.7,1.58t.07.07c.64.58,1.24,1.19,1.86,1.79,3.12,3.08,6.06,6.34,8.8,9.76.55.69,1.08,1.38,1.61,2.07,1.06,1.38,2.09,2.82,3.1,4.27,1.98,2.89,3.84,5.88,5.56,8.98.27.48.55.99.82,1.49,1.29,2.39,2.5,4.83,3.59,7.35,0,.04.04.07.04.11.34.73.64,1.45.96,2.2.04.11.09.23.14.35.27.64.53,1.31.78,1.96.83,2.14,1.61,4.32,2.32,6.53.48,1.45.9,2.92,1.31,4.39.74,2.71,1.38,5.45,1.91,8.25.16.81.32,1.63.44,2.44.04.12.04.27.07.39.11.64.2,1.29.28,1.93.2,1.19.34,2.39.48,3.59.07.64.14,1.29.2,1.95.04.48.09.97.12,1.45.04.3.05.58.05.87.05.64.11,1.24.12,1.88.04.34.04.64.05.97.04.43.04.87.07,1.29v1.56c0,.34.04.64.04.97v1.75l-.05.14Z"/>
        <path class="cls-16" d="M321.45,212.17c0,.94,0,1.86-.04,2.78v1.56c-.04.71-.05,1.4-.11,2.11,0,.16,0,.32-.04.48-.04.85-.11,1.68-.2,2.51-.04.37-.05.74-.11,1.1-.07.78-.16,1.58-.25,2.36,0,.11-.04.23-.04.35-.04.41-.11.82-.14,1.24,0,.14-.04.28-.05.43-.03.28-.09.57-.12.83-.05.46-.12.92-.2,1.36-.03.18-.03.34-.09.51-.07.53-.16,1.04-.27,1.56,0,.07,0,.14-.04.21-.05.3-.11.6-.16.9v.04s0,.11-.04.14c-.04.16-.05.34-.11.5,0,.16-.04.32-.09.48-.04.16-.07.32-.11.48-.04.11-.04.23-.07.34,0,.14-.04.28-.07.41,0,.04,0,.05-.04.11-.05.23-.11.44-.14.67-.07.34-.14.67-.23,1.01-.04.19-.09.41-.12.6-.05.27-.11.51-.18.78-.07.32-.16.64-.23.94-.04.16-.07.3-.11.46-.04.12-.05.27-.11.39v.14c0,.05-.04.12-.04.2-.12.48-.27.96-.41,1.43-.05.25-.11.5-.19.76-.09.34-.2.65-.28.99-.05.18-.11.34-.14.48-.04.18-.11.34-.16.53-.04.16-.11.32-.14.48-.07.25-.14.48-.25.73-.11.34-.21.69-.32,1.03-.04.07-.05.12-.07.19-.04.07-.05.14-.07.21-.04.09-.04.16-.07.23-.05.19-.12.41-.2.6-.05.16-.11.32-.16.46-.07.23-.16.46-.23.67-.2.53-.37,1.08-.57,1.61-.11.28-.21.57-.34.87-.05.18-.12.34-.2.51-.12.32-.27.64-.39.96-.05.12-.11.27-.18.41v.03s-.05.12-.09.2c-.09.21-.18.43-.27.64-.04.12-.11.27-.16.39-.07.14-.12.26-.18.41-.04.09-.07.16-.11.23v.04c-.05.11-.11.23-.16.34-.21.51-.42,1.01-.65,1.54-.11.21-.2.42-.28.64-.32.71-.64,1.38-.96,2.07,0,.04-.04.05-.04.09-.04.05-.04.11-.07.14-.07.16-.16.32-.23.48-.09.2-.19.39-.27.57-.09.18-.18.34-.25.48-.18.32-.34.64-.48.94-.04.05-.04.11-.09.16-.11.21-.21.41-.32.62-.04.05-.04.09-.05.11-.12.25-.27.48-.39.73-.05.09-.11.18-.12.25-.05.12-.12.25-.2.35-.04.07-.07.12-.09.18-.25.44-.48.89-.71,1.31,0,0-.05.11-.09.16l-.04.04c-.05.12-.12.25-.19.37-.23.41-.46.78-.69,1.17-.05.11-.11.19-.18.3-.14.25-.28.48-.44.73-.14.27-.3.51-.46.78-.23.37-.46.74-.71,1.1,0,.04-.04.09-.07.12-.11.16-.19.32-.28.46-.05.11-.12.19-.2.3-.34.55-.67,1.08-1.04,1.61-.12.21-.27.41-.41.62-.04.04-.05.07-.07.11-.05.05-.09.11-.12.18-.04.04-.05.09-.07.11-.44.65-.9,1.31-1.38,1.98-.07.09-.12.18-.19.27-.05.11-.12.2-.2.26-.21.3-.41.59-.64.85-.07.11-.16.23-.26.34-.14.21-.32.43-.48.64-.27.34-.51.69-.76,1.01-.04.05-.09.12-.14.2l-.04.04s-.12.18-.19.26c-.35.48-.73.94-1.1,1.38-.23.3-.48.58-.71.87-.11.14-.23.28-.34.41-.62.76-1.26,1.51-1.91,2.23-.09.11-.16.2-.25.27-.05.07-.11.14-.18.19-.46.53-.94,1.04-1.4,1.54-.14.18-.3.34-.46.48-.04.05-.11.11-.14.16l-.18.18c-.19.23-.41.46-.64.67-.05.07-.12.16-.21.23-.03.04-.03.05-.07.07-.09.09-.18.2-.27.27-.3.32-.62.64-.94.94-.04.05-.11.11-.18.18,0,.04-.04.07-.11.11-.04.04-.05.07-.09.09-.41.41-.83.85-1.26,1.24-.23.25-.48.48-.71.69-.07.09-.16.16-.23.23-.11.11-.21.19-.32.28-.43.41-.89.83-1.35,1.24-.07.07-.16.16-.27.23-.27.27-.57.51-.85.76-.11.11-.23.21-.34.3-.14.12-.27.27-.41.37-.04.04-.07.05-.11.09-.42.39-.87.76-1.31,1.11-.16.14-.34.28-.48.41-.11.09-.2.16-.28.23-.07.05-.14.11-.21.18-.2.18-.41.34-.64.51-.18.14-.35.28-.55.42-.11.11-.23.2-.34.28-.21.18-.42.34-.64.48-.11.11-.21.18-.32.27-.14.11-.3.23-.44.34-.48.37-.96.74-1.45,1.08-.11.09-.19.16-.3.21,0,.04-.04.04-.04.04-.11.07-.19.16-.32.23-.18.12-.34.25-.5.35-.07.05-.14.11-.21.16-.23.16-.46.34-.69.48-.34.25-.69.48-1.03.71-.35.25-.73.5-1.1.74-.09.07-.2.12-.3.2-.11.09-.25.18-.37.25-.25.16-.48.32-.73.48-.11.09-.23.16-.35.23-.18.11-.34.23-.53.34-.07.05-.16.11-.23.14-.04.04-.11.07-.16.11-.18.11-.34.21-.51.34-.18.11-.35.21-.53.32-.23.14-.46.28-.69.42-.27.16-.53.32-.8.48-.09.04-.16.11-.25.14-.07.04-.12.07-.2.11-.51.3-1.04.6-1.58.9-.16.11-.32.2-.48.27-.11.07-.23.14-.35.2-.21.12-.44.26-.67.37-.35.19-.71.39-1.08.57-.34.2-.67.35-1.01.53-.11.05-.2.11-.32.16-.27.14-.51.26-.78.41-.25.12-.5.25-.74.37l-1.81.87s-.18.09-.26.11c-.09.04-.2.09-.28.12-.81.39-1.63.76-2.44,1.1-.3.12-.62.27-.94.41h-.04c-.57.23-1.13.48-1.7.69-.34.16-.71.3-1.04.42-.12.05-.27.11-.41.16-2.04.78-4.09,1.52-6.18,2.18-.25.09-.5.18-.74.25-.46.14-.94.28-1.38.41-.57.18-1.15.34-1.72.48-.46.12-.92.27-1.38.37-.3.09-.6.18-.92.25-.3.09-.6.16-.9.23-.57.14-1.15.28-1.74.41-.05,0-.11.04-.2.04-.07,0-.14.04-.21.04-.69.16-1.38.3-2.07.46h-.07c-1.95.39-3.9.73-5.86,1.03-.23.04-.44.05-.65.11-.23.04-.44.05-.65.09-.21.04-.43.05-.64.09-.3.04-.6.07-.9.11-.11,0-.21.04-.32.04s-.2,0-.28.04c-.53.05-1.04.11-1.58.18h-.03c-.12,0-.27.04-.41.04-.6.05-1.22.11-1.82.16-.34.04-.66.05-1.01.07-.12,0-.27.04-.39.04h-.39c-.34.04-.65.04-.99.05-.25,0-.48.04-.71.04-.12,0-.25,0-.37.04h-.89c-.19,0-.41.03-.6.03h-1.43c-.64,0-1.29.04-1.93.04h-.34c-2.64,0-5.24-.09-7.81-.28-2.37-.16-4.73-.39-7.05-.71h-.12c-.8-.11-1.61-.21-2.39-.35-.85-.11-1.68-.26-2.5-.41-.83-.14-1.66-.32-2.5-.48s-1.65-.34-2.46-.53c-.83-.2-1.65-.39-2.46-.6-1.61-.41-3.22-.85-4.8-1.33-1.61-.48-3.17-1.01-4.74-1.56-2.35-.82-4.66-1.72-6.9-2.71-.76-.34-1.52-.66-2.27-1.01-3.19-1.45-6.3-3.06-9.31-4.82-.94-.53-1.88-1.08-2.8-1.66-.19-.12-.41-.27-.62-.41-.64-.37-1.24-.78-1.84-1.19-.94-.62-1.88-1.24-2.8-1.89-.9-.64-1.79-1.27-2.67-1.93,0,0-.04,0-.05-.04-.9-.67-1.79-1.36-2.66-2.05-.8-.64-1.59-1.27-2.36-1.93-.09-.04-.18-.11-.25-.2-.87-.73-1.7-1.45-2.53-2.21-.71-.64-1.42-1.27-2.11-1.93-.12-.11-.25-.21-.37-.34-.11-.09-.19-.18-.28-.26-.05-.04-.11-.11-.16-.16-.66-.64-1.31-1.29-1.95-1.93,0,0-.03-.04-.05-.05-.76-.78-1.52-1.58-2.27-2.37-.78-.82-1.52-1.67-2.25-2.5-.07-.05-.12-.11-.16-.18-.66-.76-1.31-1.52-1.95-2.3-.07-.07-.12-.12-.14-.2-.21-.25-.41-.48-.6-.73-.23-.28-.46-.57-.69-.87-.27-.32-.51-.64-.74-.94-.11-.11-.19-.23-.27-.35-.07-.09-.16-.19-.21-.28-.51-.67-1.03-1.36-1.52-2.05-.55-.74-1.08-1.49-1.59-2.25-.11-.14-.21-.28-.32-.44-.04-.04-.04-.05-.05-.09-.11-.16-.21-.32-.32-.48-.34-.51-.71-1.04-1.03-1.58-.18-.25-.34-.49-.48-.76-.19-.28-.39-.58-.57-.89-.34-.55-.67-1.08-1.01-1.65-.09-.11-.16-.23-.21-.34-.11-.2-.21-.36-.32-.55-.46-.78-.92-1.59-1.36-2.39-.04-.07-.09-.16-.12-.23-.3-.53-.58-1.06-.87-1.59-.19-.39-.41-.78-.6-1.17l-.04-.04c-.25-.48-.48-.96-.73-1.45v-.04s-.04-.04-.04-.05c-.19-.41-.41-.81-.58-1.22-.18-.34-.34-.69-.48-1.01-.11-.26-.25-.51-.35-.78-.11-.23-.19-.46-.3-.67-.19-.42-.39-.87-.57-1.27-.11-.25-.21-.48-.32-.72-.14-.34-.28-.66-.41-.99-.14-.34-.28-.69-.41-1.04-.11-.26-.23-.57-.34-.85-.18-.48-.35-.94-.53-1.38-.12-.32-.25-.64-.36-.96-.05-.16-.11-.3-.16-.46-.14-.39-.28-.78-.41-1.15-.12-.35-.27-.73-.37-1.08,0-.04-.04-.07-.04-.11-.09-.23-.16-.48-.25-.71-.05-.18-.11-.34-.18-.51-.04-.09-.05-.19-.07-.27-.07-.19-.12-.39-.19-.57-.18-.57-.34-1.1-.5-1.66-.11-.34-.21-.69-.3-1.03-.05-.18-.11-.34-.16-.51-.14-.55-.3-1.08-.43-1.65-.12-.44-.25-.89-.34-1.33-.04-.16-.09-.34-.12-.48-.07-.3-.14-.58-.21-.87,0-.05,0-.11-.04-.18-.04-.11-.04-.19-.07-.28-.03-.11-.05-.25-.09-.35-.05-.28-.12-.58-.19-.87-.19-.85-.35-1.68-.53-2.55-.04-.16-.05-.32-.09-.48-.09-.41-.16-.83-.23-1.24-.09-.49-.18-1.01-.27-1.49-.09-.51-.18-1.03-.25-1.56-.04-.25-.07-.48-.11-.73,0-.09,0-.16-.04-.23-.04-.27-.07-.57-.11-.83,0-.12-.04-.27-.04-.39,0-.11-.03-.21-.03-.34-.04-.16-.04-.3-.05-.46-.04-.21-.05-.41-.07-.64,0-.11-.04-.2-.04-.28v-.04c-.03-.41-.09-.81-.12-1.24,0-.09,0-.18-.03-.27,0-.11,0-.19-.04-.28,0-.11-.03-.25-.03-.35-.09-.8-.14-1.61-.19-2.43-.04-.34-.04-.65-.07-1.01,0-.32-.03-.62-.05-.94v-.62c0-.39-.04-.78-.04-1.15-.05-1.4-.09-2.81-.09-4.25,0-.78,0-1.54.04-2.34,0-.64.04-1.26.05-1.91v-.04c.04-.92.07-1.82.12-2.73.04-.74.11-1.49.18-2.25.03-.64.11-1.29.18-1.91.05-.62.12-1.22.19-1.82.07-.57.14-1.15.21-1.74.35-2.69.8-5.35,1.36-7.95.12-.62.26-1.24.41-1.82.51-2.34,1.12-4.62,1.81-6.9.18-.62.35-1.24.55-1.82.03-.07.03-.14.07-.21.26-.81.51-1.61.8-2.43.35-1.04.73-2.09,1.12-3.12.5-1.33,1.03-2.66,1.59-3.97.41-.94.8-1.88,1.24-2.8.48-1.06.97-2.09,1.47-3.1,0-.03.04-.09.07-.12.5-1.04,1.03-2.07,1.59-3.1.53-1.01,1.08-2.02,1.66-3.01,0-.04.04-.04.04-.07,2.21-3.86,4.67-7.58,7.36-11.15,1.15-1.54,2.36-3.06,3.61-4.53.78-.94,1.59-1.88,2.43-2.78,1.26-1.42,2.55-2.8,3.9-4.14.71-.71,1.4-1.42,2.12-2.11.64-.62,1.31-1.24,1.97-1.82,2.11-1.93,4.27-3.77,6.51-5.51.53-.41,1.06-.81,1.61-1.22.21-.18.43-.34.65-.48,1.49-1.11,3.01-2.18,4.55-3.21.51-.34,1.03-.69,1.56-1.01.23-.14.46-.3.69-.43.57-.37,1.13-.71,1.7-1.06.18-.11.34-.21.53-.32.65-.41,1.33-.78,2-1.17.78-.44,1.54-.87,2.32-1.29,3.88-2.11,7.9-3.97,12.06-5.56.81-.34,1.66-.64,2.5-.94.85-.3,1.68-.6,2.53-.88.85-.28,1.7-.57,2.55-.83,3.86-1.2,7.83-2.19,11.88-2.96.99-.19,1.98-.37,2.96-.53.28-.04.58-.09.87-.12.89-.14,1.79-.26,2.67-.39.23-.04.48-.05.71-.09.82-.11,1.61-.19,2.43-.26.32-.04.64-.07.94-.11.89-.09,1.77-.16,2.66-.19.27-.04.53-.04.8-.05,1.03-.07,2.05-.11,3.1-.14h.19c1.15-.04,2.34-.05,3.51-.05h.12c.71,0,1.4,0,2.11.03h.87c.26,0,.51,0,.78.04h.55c.41,0,.8,0,1.2.03.19,0,.39,0,.58.04h.44c.16,0,.34,0,.48.04.43,0,.85.04,1.28.07.39.03.78.05,1.17.11.11,0,.23,0,.34.04.11,0,.25,0,.35.04.25,0,.48.04.71.05.35.04.73.07,1.08.11.34.03.69.07,1.01.11.21.04.44.05.65.09h.18c.78.11,1.56.19,2.34.32.05,0,.11,0,.14.03.9.12,1.81.27,2.71.43.09,0,.18.03.27.03.07,0,.12.04.19.04.11,0,.21.04.34.05.73.12,1.45.26,2.16.41.23.04.48.09.71.14.3.05.6.12.88.19.23.04.46.11.71.14.11.04.25.05.37.09.14.03.28.07.44.11.73.16,1.45.34,2.19.53.37.09.74.19,1.1.28.5.12,1.01.27,1.52.41.25.05.49.12.74.21.62.18,1.24.35,1.84.55.05,0,.11.04.18.05.44.12.89.27,1.31.41.34.11.69.21,1.01.34h.05c.85.28,1.68.57,2.51.88.14.04.3.11.44.16.41.16.82.3,1.24.48.43.14.85.32,1.29.48.34.14.71.28,1.04.42.62.25,1.22.48,1.82.76.55.23,1.08.46,1.61.71.09.04.16.05.23.11.73.34,1.45.67,2.18,1.01.71.34,1.4.67,2.11,1.03.57.27,1.11.55,1.66.85l1.12.6c.73.41,1.45.78,2.16,1.2.09.04.18.09.27.14.67.39,1.36.78,2.02,1.19.76.44,1.5.9,2.25,1.38.74.48,1.49.94,2.21,1.45.73.48,1.45.97,2.18,1.49.71.48,1.43,1.01,2.12,1.54.41.32.83.64,1.24.94.41.28.81.6,1.2.92.57.46,1.15.92,1.7,1.38,1.24.99,2.43,2,3.59,3.05.2.16.41.34.6.53.57.51,1.15,1.04,1.7,1.58t.07.07c.64.58,1.24,1.19,1.86,1.79,3.12,3.08,6.06,6.34,8.8,9.76.55.69,1.08,1.38,1.61,2.07,1.06,1.38,2.09,2.82,3.1,4.27,1.98,2.89,3.84,5.88,5.56,8.98.27.48.55.99.82,1.49,1.29,2.39,2.5,4.83,3.59,7.35,0,.04.04.07.04.11.34.73.64,1.45.96,2.2.04.11.09.23.14.35.27.64.53,1.31.78,1.96.83,2.14,1.61,4.32,2.32,6.53.48,1.45.9,2.92,1.31,4.39.74,2.71,1.38,5.45,1.91,8.25.16.81.32,1.63.44,2.44.04.12.04.27.07.39.11.64.2,1.29.28,1.93.2,1.19.34,2.39.48,3.59.07.64.14,1.29.2,1.95.04.48.09.97.12,1.45.04.3.05.58.05.87.05.64.11,1.24.12,1.88.04.34.04.64.05.97.04.43.04.87.07,1.29v1.56c0,.34.04.64.04.97v1.75l-.05.14Z"/>
        <path class="cls-17" d="M196.01,321.77h-.12c-.19-.04-.41-.05-.6-.11-.6-.07-1.2-.16-1.79-.27-.04,0-.09,0-.12-.04-.64-.11-1.28-.19-1.91-.32-.16,0-.32-.04-.48-.07-.48-.09-.96-.2-1.43-.28-.35-.05-.71-.12-1.06-.19-.28-.05-.57-.11-.83-.2-.55-.11-1.08-.23-1.63-.34-1.33-.32-2.66-.64-3.95-1.01-1.12-.28-2.21-.6-3.33-.94-1.61-.48-3.17-1.01-4.74-1.56-2.35-.82-4.66-1.72-6.9-2.71-.76-.34-1.52-.65-2.27-1.01-3.19-1.45-6.3-3.06-9.31-4.82-.94-.53-1.86-1.08-2.76-1.67-.21-.12-.43-.26-.64-.41-.64-.37-1.24-.78-1.84-1.19-.18-.09-.34-.2-.5-.32-.87-.58-1.74-1.17-2.59-1.77-.18-.11-.35-.25-.53-.37-.62-.44-1.24-.89-1.84-1.36,0,0-.04,0-.05-.04-.37-.27-.73-.53-1.08-.81-.57-.44-1.13-.87-1.7-1.33-.76-.6-1.5-1.2-2.23-1.84-.09-.04-.18-.11-.25-.2-.41-.34-.85-.71-1.26-1.08-.43-.37-.87-.74-1.27-1.15-.2-.14-.35-.3-.55-.48-.48-.42-.94-.87-1.4-1.31-.05-.04-.11-.09-.16-.16-.12-.11-.25-.21-.37-.34-.11-.09-.2-.18-.28-.27-.05-.04-.11-.11-.16-.16-.65-.64-1.31-1.29-1.95-1.93,0,0-.04-.04-.05-.05-.76-.78-1.52-1.58-2.27-2.37-.11-.09-.19-.18-.26-.27-.41-.44-.83-.9-1.24-1.36-.26-.28-.53-.58-.76-.87-.07-.05-.12-.11-.16-.18-.37-.41-.71-.83-1.08-1.24-.32-.35-.6-.71-.87-1.06-.07-.07-.12-.12-.14-.2-.23-.25-.43-.48-.6-.73-.23-.28-.46-.57-.69-.87-.27-.32-.51-.64-.74-.94-.11-.11-.19-.23-.27-.35-.07-.09-.16-.2-.21-.28-.28-.37-.57-.74-.85-1.13-.25-.32-.48-.62-.67-.94-.34-.44-.65-.87-.96-1.31-.32-.46-.64-.92-.94-1.38-.04-.04-.04-.05-.05-.09-.25-.34-.48-.69-.71-1.04-.23-.34-.44-.67-.64-1.01-.18-.25-.34-.5-.48-.76-.19-.28-.39-.58-.57-.89-.34-.55-.67-1.08-1.01-1.65-.09-.11-.16-.23-.21-.34-.11-.19-.21-.35-.32-.55-.19-.34-.39-.65-.57-.99-.26-.48-.55-.94-.78-1.4-.04-.07-.09-.16-.12-.23-.3-.53-.58-1.06-.87-1.59-.19-.39-.41-.78-.6-1.17l-.04-.04c-.25-.48-.48-.96-.73-1.45v-.04s-.03-.04-.03-.05c-.19-.41-.41-.81-.58-1.22-.18-.34-.34-.69-.48-1.01-.11-.27-.25-.51-.35-.78-.11-.23-.19-.46-.3-.67-.19-.42-.39-.87-.57-1.27-.11-.25-.21-.48-.32-.73-.14-.34-.28-.66-.41-.99-.14-.34-.28-.69-.41-1.04-.11-.26-.23-.57-.34-.85-.18-.48-.35-.94-.53-1.38-.18-.48-.35-.94-.51-1.42-.26-.74-.53-1.49-.78-2.25,0-.03-.03-.07-.03-.11-.09-.23-.16-.48-.25-.71-.09-.27-.18-.53-.25-.78-.07-.2-.12-.39-.19-.57-.11-.28-.19-.57-.26-.85-.07-.26-.16-.55-.23-.81-.11-.34-.21-.69-.3-1.03-.21-.71-.41-1.43-.58-2.16-.12-.44-.25-.89-.34-1.33-.04-.16-.09-.34-.12-.48-.07-.3-.14-.59-.21-.87-.04-.16-.07-.3-.11-.46-.03-.11-.05-.25-.09-.35-.04-.14-.05-.3-.09-.44-.03-.14-.07-.28-.11-.43-.19-.85-.35-1.68-.53-2.55-.04-.16-.05-.32-.09-.48-.03-.21-.09-.43-.12-.64-.03-.19-.07-.41-.11-.6-.09-.5-.18-1.01-.27-1.49-.09-.51-.18-1.03-.25-1.56-.04-.23-.07-.48-.11-.71,0-.11,0-.18-.04-.25-.04-.27-.07-.57-.11-.83,0-.12-.04-.26-.04-.39,0-.11-.03-.21-.03-.34-.04-.16-.04-.3-.05-.46-.04-.3-.07-.6-.11-.92v-.04c-.03-.41-.09-.81-.12-1.24,0-.09,0-.18-.04-.26,0-.11,0-.2-.04-.28,0-.11-.04-.25-.04-.35-.09-.8-.14-1.61-.19-2.43-.04-.34-.04-.66-.07-1.01,0-.32-.04-.62-.05-.94,0-.21,0-.41-.04-.64,0-.39-.03-.78-.03-1.15-.05-1.4-.09-2.82-.09-4.25,0-.78,0-1.54.04-2.34,0-.64.03-1.26.05-1.91v-.04c.03-.92.07-1.82.12-2.73.03-.74.11-1.49.18-2.25.04-.64.11-1.29.18-1.91.05-.62.12-1.22.19-1.82.07-.57.14-1.15.21-1.74.35-2.69.8-5.35,1.36-7.95.12-.62.27-1.24.41-1.82.51-2.34,1.11-4.62,1.81-6.9.18-.62.35-1.24.55-1.82.04-.07.04-.14.07-.21.27-.81.51-1.61.8-2.43.35-1.04.73-2.09,1.12-3.12.5-1.33,1.03-2.66,1.59-3.97.41-.94.8-1.88,1.24-2.8.48-1.06.97-2.09,1.47-3.1,0-.03.04-.09.07-.12.5-1.04,1.03-2.07,1.59-3.1.53-1.01,1.08-2.02,1.66-3.01,0-.04.03-.04.03-.07l14.7,10.39c-6.55,13.4-10.27,28.63-10.27,44.8,0,12.84,2.34,25.09,6.6,36.3.21.6.44,1.17.69,1.75.92,2.3,1.91,4.55,3.01,6.76,1.51,3.1,3.17,6.09,4.99,8.98.96,1.54,1.96,3.06,3.03,4.55,1.59,2.28,3.29,4.46,5.08,6.59.23.26.48.57.73.83,5.1,5.91,10.87,11.14,17.23,15.55,2.82,1.98,5.76,3.79,8.78,5.42l.83.71,1.81,1.56,3.47,3.01,7.47,6.46,12.82,11.1h.04-.07Z"/>
        <path class="cls-15" d="M308.39,159.95l-8.09,5.49-6.94,4.69c-3.88-8.62-8.92-16.52-14.93-23.5-1.88-2.2-3.84-4.3-5.91-6.29-.71-.71-1.45-1.38-2.2-2.05-15.99-14.54-36.74-23.32-59.42-23.32-27.67,0-52.46,13.05-69.23,33.68l-13.28-10.15c1.26-1.42,2.57-2.8,3.9-4.14.71-.71,1.4-1.42,2.12-2.11.64-.62,1.31-1.24,1.97-1.82,2.09-1.91,4.27-3.75,6.51-5.51.53-.41,1.06-.81,1.61-1.22.21-.18.43-.34.65-.5,1.49-1.1,3.01-2.16,4.55-3.19.51-.34,1.03-.69,1.56-1.01.23-.14.46-.3.69-.42.57-.37,1.13-.71,1.7-1.06.18-.11.34-.21.53-.32.65-.41,1.33-.78,2-1.17.78-.44,1.54-.87,2.32-1.29,3.88-2.09,7.9-3.95,12.06-5.56.82-.34,1.66-.64,2.5-.94.85-.3,1.68-.6,2.53-.89.85-.28,1.7-.57,2.55-.83,1.72-.53,3.45-1.01,5.19-1.45,2.21-.57,4.43-1.08,6.69-1.51.99-.19,1.98-.37,2.96-.53.28-.04.58-.09.87-.12.88-.14,1.79-.27,2.67-.39.23-.03.48-.05.71-.09.82-.11,1.61-.19,2.43-.27.32-.04.64-.07.94-.11.88-.09,1.77-.16,2.65-.19.27-.03.53-.03.8-.05,1.03-.07,2.05-.11,3.1-.14h.2c1.15-.03,2.34-.05,3.5-.05h.12c.71,0,1.4,0,2.11.04h.87c.27,0,.51,0,.78.03h.41c.44,0,.9.04,1.35.05.34,0,.69.04,1.03.05.58.04,1.17.07,1.75.11.5.04,1.01.07,1.52.12.36.04.71.05,1.08.11.35.04.73.07,1.08.11.34.03.69.07,1.01.11h.19c.21.04.43.05.64.09.78.11,1.56.19,2.34.32.05,0,.11,0,.14.04.9.12,1.81.26,2.71.43.09,0,.18.04.27.04.07,0,.12.04.19.04.11,0,.21.04.34.05.73.12,1.45.26,2.16.41.23.04.48.09.71.14.53.11,1.06.21,1.59.34.11.03.25.05.37.09.39.09.78.18,1.17.27.48.11.97.25,1.45.37.37.09.73.19,1.1.28.41.11.85.21,1.26.34.34.11.67.19,1.01.3.27.05.51.12.76.21.37.11.73.21,1.08.34.05,0,.11.03.18.05.44.12.88.26,1.31.41.34.11.69.21,1.01.34h.05c.85.28,1.68.57,2.51.89.14.03.3.11.44.16.41.14.82.3,1.24.48.43.14.85.32,1.29.48.34.12.71.27,1.04.43.62.25,1.22.48,1.82.76.55.23,1.08.46,1.61.71.09.03.16.05.23.11.73.34,1.45.65,2.18,1.01.71.34,1.4.67,2.11,1.01.57.28,1.11.57,1.66.87l1.12.6c.73.41,1.45.78,2.16,1.2.09.04.18.09.26.14.53.3,1.05.6,1.56.9.16.09.32.19.46.28.76.44,1.51.9,2.25,1.38.74.48,1.49.94,2.21,1.45.73.48,1.45.97,2.18,1.49.71.48,1.43,1.01,2.12,1.54.41.32.83.64,1.24.94.41.28.81.6,1.2.92.57.46,1.15.92,1.7,1.38,1.22.96,2.43,1.98,3.59,3.05.19.16.41.34.6.53.57.51,1.15,1.04,1.7,1.58t.07.07c.64.58,1.24,1.19,1.86,1.79,3.15,3.08,6.09,6.34,8.8,9.76.55.69,1.08,1.38,1.61,2.07,1.08,1.4,2.12,2.82,3.1,4.27,2.02,2.89,3.88,5.88,5.56,8.98.3.48.57.99.83,1.47l.07.05Z"/>
        <path class="cls-18" d="M321.45,212.17c0,46.51-28.7,86.32-69.37,102.64l9.95-22.1c24.29-17.48,40.26-47.03,40.26-80.56,0-12.04-2.05-23.57-5.82-34.19l15.49-10.66c6.09,13.71,9.49,28.9,9.49,44.87Z"/>
        <path class="cls-25" d="M300.28,165.44l-6.92,4.71c-14.73-32.63-46.12-55.17-82.46-55.17,35.18-2.6,75.92,17.95,89.38,50.46Z"/>
        <path class="cls-1" d="M210.9,115c-27.67,0-52.46,13.05-69.23,33.68l-13.28-10.15c1.26-1.42,2.57-2.8,3.9-4.14.71-.71,1.4-1.42,2.12-2.11.64-.62,1.31-1.24,1.97-1.82,2.09-1.91,4.27-3.75,6.51-5.51.53-.41,1.06-.81,1.61-1.22.21-.18.43-.34.65-.5l-4.09,5.86c25.99-11.12,48.8-14.68,69.83-14.09Z"/>
        <path class="cls-26" d="M261.73,120.36c-22.35-12.98-50.85-16.43-77.23-10.36l-1.15-4.96c2.21-.57,4.43-1.08,6.69-1.5.99-.19,1.98-.37,2.96-.53.28-.04.58-.09.87-.12.88-.14,1.79-.26,2.67-.39.23-.04.48-.05.71-.09.82-.11,1.61-.19,2.43-.26.32-.04.64-.07.94-.11.89-.09,1.77-.16,2.66-.19.26-.04.53-.04.8-.05,1.03-.07,2.05-.11,3.1-.14h.19c1.15-.04,2.34-.05,3.51-.05h.12c.71,0,1.4,0,2.11.03h.87c.27,0,.51,0,.78.04h.55c.6,0,1.19.03,1.79.09h.44c.16,0,.34,0,.48.04.81.03,1.63.11,2.44.18.11,0,.23,0,.34.04.11,0,.25,0,.35.04.6.04,1.2.11,1.81.18.34.04.69.07,1.01.11h.19c.16.03.32.03.46.07h.18c.83.11,1.65.21,2.48.34.9.12,1.81.27,2.71.43.09,0,.18.03.27.03.07,0,.12.04.19.04.11,0,.21.04.34.05.73.12,1.45.26,2.16.41.23.04.48.09.71.14.3.05.6.12.89.19.51.11,1.01.21,1.52.34.25.03.48.11.73.16.48.11.97.25,1.45.37.37.09.73.19,1.1.28.41.11.85.21,1.26.34.09.04.18.04.27.09.25.05.5.12.74.21.27.05.51.12.76.21.37.11.73.21,1.08.34.05,0,.11.03.18.05.44.12.88.27,1.31.41.34.11.69.21,1.01.34h.05c.85.28,1.68.57,2.51.89.14.03.3.11.44.16.41.14.82.3,1.24.48.43.14.85.32,1.29.48.34.12.71.27,1.04.43.62.25,1.22.48,1.82.76.55.23,1.08.46,1.61.71.09.04.16.05.23.11.73.34,1.45.65,2.18,1.01.71.34,1.4.67,2.11,1.01l1.24,7.06.04.12Z"/>
        <path class="cls-2" d="M319.6,232.46c-9.52,51.38-54.59,90.3-108.73,90.3-21.32,0-41.24-6.04-58.13-16.48,40.07-2.9,77.55-9.07,110.35-21.14l1.77-5.28c26.84-7.42,45.82-22.8,54.75-47.4Z"/>
        <path class="cls-36" d="M265.26,282.73c0,6.52-5.26,11.79-11.78,11.79s-11.77-5.28-11.77-11.79c0-.35,0-.73.04-1.06.55-6.02,5.6-10.71,11.74-10.71,2.69,0,5.19.9,7.17,2.43,2.8,2.16,4.6,5.54,4.6,9.37v-.02Z"/>
        <path class="cls-7" d="M243.53,287.81c2.05,2.25,4.99,3.66,8.27,3.66,6.16,0,11.15-4.99,11.15-11.15,0-1.77-.41-3.45-1.15-4.94,1.77,1.96,2.87,4.59,2.87,7.45,0,6.16-4.99,11.15-11.15,11.15-4.37,0-8.16-2.51-9.99-6.18Z"/>
        <path class="cls-24" d="M258.7,272.74v.07c1.01,5.7-2.82,11.12-8.53,12.11-2.73.48-5.38-.16-7.52-1.56-.46-5.61,3.43-10.73,9.08-11.72,2.48-.42,4.9,0,6.98,1.08v.02Z"/>
        <path class="cls-23" d="M251.78,273.71c.96,1.13-.78,1.66-2.36,3.01-1.58,1.35-2.39,2.96-3.35,1.84-.96-1.13-.46-3.13,1.13-4.46,1.57-1.35,3.63-1.51,4.59-.37l-.02-.02Z"/>
        <path class="cls-34" d="M228.67,140.55c0,3.54-2.87,6.41-6.39,6.41s-6.39-2.87-6.39-6.41c0-.2,0-.39.02-.58.3-3.26,3.05-5.83,6.38-5.83,1.47,0,2.82.5,3.89,1.31,1.52,1.17,2.5,3.01,2.5,5.08v.02Z"/>
        <path class="cls-8" d="M216.86,143.33c1.12,1.22,2.71,1.98,4.5,1.98,3.35,0,6.06-2.71,6.06-6.06,0-.97-.23-1.88-.62-2.69.97,1.06,1.56,2.5,1.56,4.06,0,3.35-2.71,6.05-6.05,6.05-2.37,0-4.43-1.36-5.42-3.35h-.02Z"/>
        <path class="cls-21" d="M225.12,135.13v.03c.55,3.1-1.54,6.04-4.64,6.59-1.49.26-2.92-.09-4.09-.85-.25-3.05,1.86-5.83,4.92-6.37,1.35-.23,2.67,0,3.79.58l.02.02Z"/>
        <path class="cls-20" d="M221.36,135.66c.51.62-.43.9-1.27,1.63-.85.73-1.31,1.61-1.82.99-.51-.62-.25-1.7.62-2.43.85-.73,1.97-.81,2.5-.21l-.02.02Z"/>
        <path class="cls-35" d="M281,175.28c0,2.78-2.23,5.01-5.01,5.01s-5.01-2.25-5.01-5.01v-.44c.23-2.55,2.37-4.57,4.99-4.57,1.15,0,2.21.39,3.05,1.03,1.19.92,1.96,2.36,1.96,3.98h.02Z"/>
        <path class="cls-6" d="M271.75,177.45c.87.96,2.12,1.56,3.52,1.56,2.62,0,4.74-2.12,4.74-4.75,0-.76-.18-1.47-.5-2.11.76.83,1.22,1.95,1.22,3.17,0,2.62-2.12,4.74-4.74,4.74-1.86,0-3.47-1.06-4.25-2.62Z"/>
        <path class="cls-22" d="M278.21,171.03v.04c.43,2.43-1.2,4.73-3.63,5.15-1.15.19-2.28-.07-3.2-.66-.2-2.39,1.45-4.57,3.86-4.99,1.04-.18,2.09,0,2.96.46h.02Z"/>
        <path class="cls-19" d="M275.26,171.44c.41.48-.34.71-1.01,1.27-.67.57-1.03,1.26-1.43.78-.41-.48-.2-1.33.48-1.89.67-.57,1.54-.64,1.95-.16h.02Z"/>
        <path class="cls-29" d="M321.45,212.17c0,.94,0,1.86-.04,2.78v1.56c-.04.71-.05,1.42-.11,2.11,0,.16,0,.32-.04.48,0,.21-.04.43-.04.64-.04.64-.09,1.26-.14,1.88-.04.37-.05.74-.11,1.1,0,.27-.03.51-.07.76-.05.53-.11,1.06-.18,1.59,0,.11-.04.23-.04.35-.04.41-.11.82-.14,1.24-.04.14-.04.28-.05.43-.04.28-.09.57-.12.83-.05.46-.12.92-.2,1.36-.04.18-.05.34-.09.51-.07.53-.16,1.04-.27,1.56,0,.07,0,.14-.03.21-.05.32-.11.64-.18.94v.14c-.04.16-.05.34-.11.5-.03.16-.05.32-.09.48-.04.16-.07.32-.11.48-.04.11-.04.23-.07.34-.04.18-.07.34-.11.51-.05.23-.11.44-.14.67-.07.34-.14.67-.23,1.01-.04.19-.09.41-.12.6-.04.11-.04.2-.07.27-.04.18-.07.34-.11.49-.07.32-.16.64-.23.94-.04.16-.07.3-.11.46-.04.12-.07.27-.11.39v.09c-.16.57-.3,1.12-.46,1.68-.16.59-.32,1.15-.48,1.75-.05.18-.11.34-.14.48-.11.34-.21.69-.32,1.01-.07.26-.14.49-.23.73-.11.34-.21.69-.32,1.03-.04.07-.05.12-.07.2-.04.07-.05.14-.07.21,0,0-.04.16-.07.23-.07.2-.14.41-.2.6-.05.16-.11.32-.16.46-.04.07-.04.12-.07.2-.11.34-.23.65-.34.99-.09.25-.18.48-.27.71-.16.41-.3.81-.46,1.22v.04c-.05.14-.11.28-.18.44-.14.34-.27.69-.41,1.03-.05.12-.11.26-.18.41v.04s-.05.12-.09.19c-.09.21-.18.43-.27.64-.05.12-.11.27-.16.39-.07.14-.12.26-.18.41-.04.09-.07.16-.11.23-.05.12-.11.25-.16.37-.2.42-.37.87-.57,1.27-.19.44-.39.89-.58,1.31-.12.27-.25.55-.37.8-.18.39-.35.76-.55,1.13-.41.87-.83,1.73-1.28,2.58-.11.21-.21.41-.32.62-.04.05-.04.09-.05.11-.14.25-.27.5-.39.73-.05.09-.11.18-.12.25-.07.12-.14.25-.19.35-.04.07-.07.12-.09.18-.25.44-.48.89-.73,1.31-.04.05-.05.11-.09.16l-.04.04c-.28.51-.58,1.03-.89,1.54-.05.11-.11.19-.16.28h-.04c-.5.87-1.03,1.75-1.58,2.58,0,.04-.04.09-.07.12-.11.16-.19.32-.28.46-.05.11-.12.2-.2.3-.34.55-.69,1.08-1.04,1.61-.12.21-.27.41-.41.62-.04.04-.05.07-.07.11-.05.05-.09.11-.12.18-.04.04-.05.09-.07.11-.51.76-1.05,1.51-1.58,2.23-.05.11-.12.2-.19.27-.21.3-.41.58-.64.85-.09.11-.18.23-.27.34-.16.21-.32.42-.48.64-.27.34-.51.69-.76,1.01-.04.04-.05.05-.07.07-.04.05-.07.11-.11.16-.07.09-.12.18-.2.27-.6.76-1.2,1.52-1.82,2.27-.11.14-.23.28-.34.41-.64.76-1.26,1.51-1.91,2.23-.09.11-.16.19-.25.26-.67.76-1.35,1.51-2.04,2.23-.04.05-.11.11-.14.16l-.18.18c-.69.74-1.38,1.47-2.12,2.2-.03.05-.11.11-.18.18-.03.04-.05.07-.11.11-.04.04-.05.07-.09.09-.78.78-1.54,1.54-2.36,2.28-.58.57-1.17,1.1-1.77,1.63-.27.27-.57.51-.85.76,0,0-.04.04-.07.07-.09.07-.18.14-.26.23-.18.16-.36.32-.53.46-.42.39-.87.76-1.31,1.11-.16.14-.34.28-.48.41-.11.09-.2.16-.28.23-.07.05-.14.11-.21.18-.21.18-.41.34-.64.51-.2.14-.35.3-.55.42-.11.11-.23.2-.34.27-.21.19-.42.35-.64.51-.11.11-.21.18-.32.27-.14.11-.3.23-.44.34-.48.37-.96.73-1.45,1.08-.11.09-.2.16-.3.21,0,.04-.04.04-.04.04-.11.09-.21.18-.32.25-.18.12-.34.25-.5.35-.64.46-1.29.92-1.93,1.36-.35.25-.73.49-1.1.74-.11.07-.2.12-.3.2-.11.09-.25.16-.37.25-.25.16-.48.32-.73.48-.11.09-.23.16-.35.23-.18.11-.34.23-.53.34-.07.05-.16.11-.23.14-.03.04-.11.07-.16.11-.34.21-.69.42-1.04.64-.48.32-.99.6-1.49.9-.09.04-.16.11-.25.14-.07.04-.12.07-.19.11-.51.3-1.05.6-1.58.9-.16.09-.32.18-.48.27-.11.07-.23.14-.35.2-.21.12-.44.27-.67.37-.35.2-.71.39-1.08.57-.12.07-.27.14-.41.19-.3.18-.62.34-.94.48-.26.14-.51.27-.78.41-.94.46-1.86.92-2.8,1.35-.09.04-.2.09-.28.12-.8.39-1.61.74-2.44,1.1-.3.12-.62.27-.94.41h-.04c-.57.23-1.13.48-1.7.69-.35.14-.71.28-1.06.42-.12.05-.27.11-.41.16-2.23.87-4.51,1.67-6.83,2.37-1.06.34-2.12.64-3.21.94-.46.12-.92.27-1.38.37-.3.09-.6.18-.92.25-.3.09-.6.16-.9.23-.57.14-1.15.28-1.74.41-.05,0-.11.04-.19.04-.07,0-.14.04-.21.04-.69.16-1.38.3-2.07.46h-.07c-1.95.39-3.9.73-5.86,1.03-.44.05-.88.12-1.31.2-.21.04-.43.05-.64.09-.3.04-.6.07-.9.11-.11,0-.21.04-.32.04s-.2,0-.28.04c-.53.05-1.04.11-1.57.18h-.04c-.12,0-.26.04-.41.04-.48.04-.94.09-1.4.12-.14,0-.28.04-.43.04-.48.04-.94.09-1.38.11h-.2c-.41.04-.78.04-1.19.07-.25,0-.48.04-.71.04-.12,0-.25,0-.37.04h-.89c-.19,0-.41.04-.6.04h-1.43c-.64,0-1.29.04-1.93.04h-.34c-2.64,0-5.24-.09-7.81-.28-2.37-.16-4.73-.39-7.05-.71h-.12c-.8-.11-1.61-.21-2.39-.35-.85-.11-1.68-.27-2.5-.41-.83-.14-1.67-.32-2.5-.48-.83-.16-1.65-.34-2.46-.53-.83-.2-1.65-.39-2.46-.6-1.61-.41-3.22-.85-4.8-1.33-1.61-.48-3.17-1.01-4.75-1.56-2.35-.81-4.66-1.72-6.9-2.71-.76-.34-1.52-.65-2.27-1.01-3.19-1.45-6.3-3.06-9.31-4.82-.94-.53-1.88-1.08-2.8-1.67-.2-.12-.41-.26-.62-.41-.64-.37-1.24-.78-1.84-1.19-.18-.09-.34-.2-.5-.32-.78-.51-1.54-1.03-2.28-1.58-.11-.05-.19-.12-.3-.19-.18-.11-.35-.25-.53-.37-.62-.44-1.24-.89-1.84-1.36,0,0-.04,0-.05-.04-.37-.27-.73-.53-1.08-.82-.53-.41-1.06-.81-1.58-1.24-.04,0-.09-.05-.12-.09-.76-.6-1.51-1.2-2.23-1.84-.09-.04-.18-.11-.25-.2-.41-.34-.85-.71-1.26-1.08-.62-.53-1.22-1.08-1.82-1.61-.48-.42-.94-.87-1.4-1.31-.05-.04-.11-.09-.16-.16-.12-.11-.25-.21-.37-.34-.11-.09-.19-.18-.28-.27-.05-.04-.11-.11-.16-.16-.65-.64-1.31-1.29-1.95-1.93,0,0-.04-.04-.05-.05-.76-.78-1.52-1.58-2.27-2.37-.11-.09-.2-.18-.27-.26-.41-.44-.83-.9-1.24-1.36-.27-.28-.53-.58-.76-.87-.07-.05-.12-.11-.16-.18-.37-.41-.71-.83-1.08-1.24-.32-.35-.6-.71-.87-1.06-.07-.07-.12-.12-.14-.2-.23-.25-.43-.48-.6-.73-.23-.28-.46-.57-.69-.87-.27-.32-.51-.64-.74-.94-.11-.11-.19-.23-.26-.35-.07-.09-.16-.19-.21-.28-.28-.37-.57-.74-.85-1.13-.25-.32-.48-.62-.67-.94-.34-.44-.66-.87-.96-1.31-.21-.3-.42-.62-.64-.94-.11-.14-.21-.28-.32-.44-.04-.04-.04-.05-.05-.09-.11-.16-.21-.32-.32-.48-.12-.2-.27-.37-.39-.57-.23-.34-.44-.67-.64-1.01-.18-.25-.34-.49-.48-.76-.19-.28-.39-.58-.57-.89-.34-.55-.67-1.08-1.01-1.65-.09-.11-.16-.23-.21-.34-.11-.2-.21-.35-.32-.55-.19-.34-.39-.65-.57-.99-.27-.48-.55-.94-.78-1.4-.04-.07-.09-.16-.12-.23-.3-.53-.58-1.06-.87-1.59-.19-.39-.41-.78-.6-1.17l-.03-.03c-.25-.48-.48-.96-.73-1.45v-.04s-.03-.04-.03-.05c-.19-.41-.41-.81-.58-1.22-.18-.34-.34-.69-.48-1.01-.11-.27-.25-.51-.35-.78-.11-.23-.19-.46-.3-.67-.19-.43-.39-.87-.57-1.27-.11-.25-.21-.48-.32-.73-.14-.34-.28-.66-.41-.99-.14-.34-.28-.69-.41-1.04-.11-.26-.23-.57-.34-.85-.18-.48-.35-.94-.53-1.38-.12-.32-.25-.64-.35-.96-.19-.55-.39-1.08-.57-1.61-.12-.35-.27-.73-.37-1.08,0-.04-.03-.07-.03-.11-.09-.23-.16-.48-.25-.71-.05-.18-.11-.34-.18-.51-.09-.28-.18-.57-.27-.85-.11-.28-.19-.57-.26-.85-.23-.78-.46-1.58-.69-2.36-.14-.55-.3-1.08-.43-1.65-.12-.44-.25-.89-.34-1.33-.04-.16-.09-.34-.12-.48-.09-.35-.18-.71-.25-1.04-.04-.11-.04-.2-.07-.28-.05-.27-.12-.55-.18-.8-.04-.14-.07-.28-.11-.43-.19-.85-.35-1.68-.53-2.55-.04-.16-.05-.32-.09-.48-.03-.21-.09-.43-.12-.64-.03-.2-.07-.41-.11-.6-.09-.5-.18-1.01-.27-1.49-.09-.51-.18-1.03-.25-1.56-.04-.23-.07-.48-.11-.71,0-.09-.03-.16-.03-.25-.04-.26-.07-.57-.11-.83,0-.12-.04-.27-.04-.39,0-.11-.03-.21-.03-.34-.04-.16-.04-.3-.05-.46-.04-.21-.05-.41-.07-.64,0-.11-.04-.21-.04-.34-.03-.41-.09-.81-.12-1.24,0-.09,0-.18-.03-.27,0-.11,0-.2-.04-.28,0-.11-.04-.25-.04-.35-.09-.8-.14-1.61-.19-2.43-.04-.34-.04-.65-.07-1.01-.04-.48-.05-.94-.07-1.42-.04-.43-.04-.87-.05-1.31-.05-1.4-.09-2.81-.09-4.25,0-.78,0-1.54.04-2.34,0-.64.04-1.26.05-1.91.3,7.68,1.38,15.16,3.17,22.36,7.61,30.74,28.1,56.38,55.39,70.93.48.27.97.51,1.45.74.23.14.44.27.67.34.67.35,1.35.69,2.02,1.01,1.28.64,2.59,1.22,3.88,1.77,5.21,2.28,10.62,4.14,16.22,5.56,8.85,2.28,18.13,3.51,27.71,3.51,16.41,0,32-3.58,46-10,2.23-1.01,4.44-2.11,6.6-3.28,4.25-2.3,8.34-4.87,12.22-7.68,2.02-1.45,4-2.99,5.9-4.59,13.53-11.26,24.33-25.71,31.25-42.16,2.59-6.11,4.62-12.52,6.07-19.14.19-.87.37-1.74.55-2.6.89-4.59,1.49-9.28,1.79-14.06.05-.83.11-1.66.12-2.5v-.16c0,.41.04.8.04,1.19,0,.41.04.83.04,1.24v1.75l-.11.16Z"/>
        <path class="cls-14" d="M321.47,212.1c0,61.09-49.52,110.59-110.61,110.59s-110.61-49.51-110.61-110.59c0-2.92.11-5.82.34-8.69,4.43-57.03,52.11-101.92,110.27-101.92,17.03,0,33.16,3.84,47.58,10.73,37.27,17.78,63.03,55.81,63.03,99.88Z"/>
        <path class="cls-10" d="M321.47,212.38c0,61.09-49.52,110.59-110.61,110.59s-110.61-49.51-110.61-110.59c0-2.92.11-5.82.34-8.69,4.43-57.03,52.11-101.92,110.27-101.92,17.03,0,33.16,3.84,47.58,10.73,37.27,17.78,63.03,55.81,63.03,99.88Z"/>
        <path class="cls-4" d="M264.48,156.41c-2.2,20.1-10.69,38-23.32,51.9-.65.71-1.29,1.4-1.97,2.07-.44.46-.88.92-1.35,1.38-3.91,3.88-8.18,7.42-12.71,10.54-1.04.74-2.11,1.43-3.19,2.11-.34.21-.67.43-1.03.64-1.86,1.13-3.79,2.23-5.75,3.22-2.87,1.51-5.82,2.83-8.85,4.02-.64.26-1.29.5-1.95.73-.92.35-1.84.65-2.78.97-2.46.81-4.99,1.52-7.56,2.11-2.96.73-5.97,1.26-9.03,1.66-2.55.34-5.13.57-7.74.67h-.02c-3.13.16-6.3.14-9.49-.04-1.58-.11-3.17-.23-4.78-.41l-.35-.03c-.76-.09-1.54-.18-2.28-.3-1.19-.14-2.37-.34-3.54-.55-.89-.16-1.77-.34-2.64-.51-1.33-.26-2.64-.57-3.93-.9-5.51-1.38-10.8-3.26-15.83-5.58-.46-.21-.9-.43-1.35-.64-4.02-1.93-7.88-4.14-11.51-6.62-1.03-.67-2.04-1.38-3.03-2.11-.21-.14-.42-.3-.62-.46-6.52-4.85-12.32-10.54-17.3-16.87,4.43-57.03,52.11-101.92,110.27-101.92,17.03,0,33.16,3.84,47.58,10.73,1.74,4.32,3.17,8.82,4.21,13.42.51,2.2.96,4.43,1.29,6.67.14.89.27,1.79.37,2.67.35,2.71.57,5.42.64,8.18.16,4.36,0,8.76-.48,13.24Z"/>
        <path class="cls-3" d="M321.6,276.45c22.61-46.07,2.27-102.4-45.44-125.81-47.7-23.41-104.7-5.04-127.31,41.03-22.61,46.07-2.27,102.4,45.44,125.81,47.7,23.41,104.7,5.04,127.31-41.03Z"/>
        <path class="cls-12" d="M227.47,136.88c0,3.91-3.24,7.1-7.24,7.1s-7.24-3.19-7.24-7.1,3.24-7.1,7.24-7.1,7.24,3.19,7.24,7.1Z"/>
        <path class="cls-11" d="M279.52,172.4c0,2.99-2.48,5.42-5.52,5.42s-5.52-2.43-5.52-5.42,2.48-5.42,5.52-5.42,5.52,2.43,5.52,5.42Z"/>
        <path class="cls-5" d="M171.7,245.47c48.15,0,87.19-38.26,87.19-85.47s-39.03-85.47-87.19-85.47-87.18,38.27-87.18,85.47,39.03,85.47,87.18,85.47Z"/>
      </g>
      <g class="cls-33">
        <path class="cls-37" d="M212.74,182.92h-3.35v56.08h3.35v-56.08Z"/>
        <g class="cls-38">
          <path class="cls-39" d="M212.74,182.92h-3.35v56.08h3.35v-56.08Z"/>
        </g>
        <path class="cls-37" d="M185.29,192.95l-1.72,2.87,51,30.67,1.72-2.87-51-30.67Z"/>
        <g class="cls-38">
          <path class="cls-39" d="M185.29,192.95l-1.72,2.87,51,30.67,1.72-2.87-51-30.67Z"/>
        </g>
        <path class="cls-37" d="M234.71,194.01l-50.66,30.83,1.74,2.86,50.66-30.83-1.74-2.86Z"/>
        <g class="cls-38">
          <path class="cls-39" d="M234.71,194.01l-50.66,30.83,1.74,2.86,50.66-30.83-1.74-2.86Z"/>
        </g>
        <path class="cls-37" d="M213.39,176.03c-1.28-.74-3.36-.74-4.64,0l-26.51,15.34c-1.28.74-2.32,2.54-2.32,4.02v30.65c0,1.47,1.04,3.28,2.32,4.02l26.51,15.34c1.28.74,3.36.74,4.64,0l26.51-15.34c1.28-.74,2.32-2.54,2.32-4.02v-30.65c0-1.47-1.04-3.28-2.32-4.02l-26.51-15.34ZM235.51,222.18c0,1.47-1.04,3.28-2.32,4.02l-19.81,11.46c-1.28.74-3.36.74-4.64,0l-19.81-11.46c-1.28-.74-2.32-2.55-2.32-4.02v-22.92c0-1.47,1.04-3.28,2.32-4.02l19.81-11.46c1.28-.74,3.36-.74,4.64,0l19.81,11.46c1.28.74,2.32,2.55,2.32,4.02v22.92Z"/>
        <g class="cls-38">
          <path class="cls-39" d="M213.39,176.03c-1.28-.74-3.36-.74-4.64,0l-26.51,15.34c-1.28.74-2.32,2.54-2.32,4.02v30.65c0,1.47,1.04,3.28,2.32,4.02l26.51,15.34c1.28.74,3.36.74,4.64,0l26.51-15.34c1.28-.74,2.32-2.54,2.32-4.02v-30.65c0-1.47-1.04-3.28-2.32-4.02l-26.51-15.34ZM235.51,222.18c0,1.47-1.04,3.28-2.32,4.02l-19.81,11.46c-1.28.74-3.36.74-4.64,0l-19.81-11.46c-1.28-.74-2.32-2.55-2.32-4.02v-22.92c0-1.47,1.04-3.28,2.32-4.02l19.81-11.46c1.28-.74,3.36-.74,4.64,0l19.81,11.46c1.28.74,2.32,2.55,2.32,4.02v22.92Z"/>
        </g>
        <path class="cls-37" d="M201.02,205.97c0-.61.43-1.35.95-1.65l8.14-4.71c.53-.3,1.39-.3,1.91,0l8.14,4.71c.52.3.95,1.05.95,1.66v9.42c0,.61-.43,1.35-.95,1.65l-8.14,4.71c-.52.3-1.38.3-1.91,0l-8.14-4.71c-.52-.3-.95-1.05-.95-1.65v-9.42h0Z"/>
        <g class="cls-38">
          <path class="cls-39" d="M201.02,205.97c0-.61.43-1.35.95-1.65l8.14-4.71c.53-.3,1.39-.3,1.91,0l8.14,4.71c.52.3.95,1.05.95,1.66v9.42c0,.61-.43,1.35-.95,1.65l-8.14,4.71c-.52.3-1.38.3-1.91,0l-8.14-4.71c-.52-.3-.95-1.05-.95-1.65v-9.42h0Z"/>
        </g>
        <path class="cls-37" d="M203.31,216.27c-.52-.3-.95-1.05-.95-1.65v-7.88c0-.61.43-1.35.95-1.65l6.8-3.94c.52-.3,1.38-.3,1.91,0l6.8,3.94c.52.3.95,1.05.95,1.65v7.88c0,.61-.43,1.35-.95,1.65l-6.8,3.94c-.52.3-1.38.3-1.91,0l-6.8-3.94Z"/>
        <g class="cls-38">
          <path class="cls-39" d="M203.31,216.27c-.52-.3-.95-1.05-.95-1.65v-7.88c0-.61.43-1.35.95-1.65l6.8-3.94c.52-.3,1.38-.3,1.91,0l6.8,3.94c.52.3.95,1.05.95,1.65v7.88c0,.61-.43,1.35-.95,1.65l-6.8,3.94c-.52.3-1.38.3-1.91,0l-6.8-3.94Z"/>
        </g>
        <path class="cls-37" d="M206.66,214.34c-.52-.3-.96-1.05-.96-1.65v-4.01c0-.61.43-1.35.96-1.65l3.45-2c.53-.3,1.39-.3,1.91,0l3.45,2c.52.3.96,1.05.96,1.65v4.01c0,.61-.43,1.35-.96,1.65l-3.45,2c-.52.3-1.38.3-1.91,0l-3.45-2Z"/>
        <g class="cls-38">
          <path class="cls-39" d="M206.66,214.34c-.52-.3-.96-1.05-.96-1.65v-4.01c0-.61.43-1.35.96-1.65l3.45-2c.53-.3,1.39-.3,1.91,0l3.45,2c.52.3.96,1.05.96,1.65v4.01c0,.61-.43,1.35-.96,1.65l-3.45,2c-.52.3-1.38.3-1.91,0l-3.45-2Z"/>
        </g>
        <path class="cls-37" d="M230.92,143.56c-4.01-2.91-12.38,2.91-12.74,3.64-.37.73-.42,3.02-.42,3.02l-5.56-2.47s1.12-1.27,1.68-2c.55-.73.91-7.1.91-7.1.5-5.46-3.71-5.96-3.71-5.96,0,0-4.35.5-3.85,5.96,0,0,.28,6.37.84,7.1.55.73,1.64,2,1.64,2l-5.45,2.82s-.19-2.63-.55-3.36c-.37-.73-8.74-6.55-12.74-3.64-4.01,2.91-2,6.9.73,8.55,2.73,1.64,8.2,4.29,8.2,4.29,0,0,1.81-2.28,2.54-1.91.73.36-.36,14.2-.36,14.2,0,0,5.86,2.42,2.01,4.58,0,0-6.06-1.54-5.2,3.36l6.62,3.5,5.57-1.42,5.43,1.42,6.49-3.5c.87-4.9-5.2-3.36-5.2-3.36-3.84-2.16,2.02-4.58,2.02-4.58,0,0-1.09-13.83-.37-14.2.73-.37,2.54,1.91,2.54,1.91,0,0,5.47-2.65,8.2-4.29,2.73-1.64,4.74-5.64.73-8.55Z"/>
        <path class="cls-37" d="M190.95,278.41c4.01,2.91,12.38-2.91,12.74-3.64.37-.73.42-3.02.42-3.02l5.56,2.47s-1.12,1.27-1.68,2c-.55.73-.91,7.1-.91,7.1-.5,5.46,3.71,5.96,3.71,5.96,0,0,4.34-.49,3.85-5.96,0,0-.28-6.38-.84-7.1-.55-.73-1.64-2-1.64-2l5.45-2.82s.19,2.63.55,3.36c.37.73,8.74,6.55,12.74,3.64,4.01-2.91,2-6.9-.73-8.55-2.73-1.64-8.2-4.29-8.2-4.29,0,0-1.81,2.28-2.54,1.91-.73-.37.37-14.2.37-14.2,0,0-5.86-2.41-2.01-4.58,0,0,6.06,1.54,5.2-3.36l-6.62-3.5-5.57,1.42-5.43-1.42-6.49,3.5c-.87,4.9,5.2,3.36,5.2,3.36,3.84,2.16-2.01,4.58-2.01,4.58,0,0,1.09,13.83.37,14.2-.73.37-2.54-1.91-2.54-1.91,0,0-5.47,2.64-8.2,4.29-2.73,1.64-4.74,5.64-.73,8.55h0Z"/>
        <path class="cls-37" d="M279.74,195.14c.45-4.93-8.83-9.14-9.64-9.09-.81.06-2.81,1.18-2.81,1.18l-.72-6.04s1.67.32,2.58.42c.91.1,6.56-2.85,6.56-2.85,4.94-2.37,3.22-6.24,3.22-6.24,0,0-2.65-3.48-7.09-.26,0,0-5.32,3.51-5.67,4.35-.34.85-.88,2.44-.88,2.44l-5.21-3.25s2.16-1.51,2.6-2.2c.44-.68,1.16-10.86-3.39-12.81-4.55-1.95-6.96,1.81-6.98,5-.02,3.19.51,9.24.51,9.24,0,0,2.89.39,2.94,1.2s-12.39,6.95-12.39,6.95c0,0,.92,6.27-2.9,4.07,0,0-1.78-6-5.54-2.74l.38,7.48,4.07,4.06,1.56,5.39,6.32,3.78c4.65-1.76.22-6.18.22-6.18-.11-4.4,4.97-.61,4.97-.61,0,0,11.33-8.01,12.01-7.58.68.44-.35,3.16-.35,3.16,0,0,5.07,3.35,7.88,4.86,2.81,1.51,7.26,1.19,7.72-3.74h0Z"/>
        <path class="cls-37" d="M142.88,226.51c-.78,4.89,8.2,9.72,9.01,9.72.81,0,2.89-.99,2.89-.99l.31,6.08s-1.65-.43-2.54-.59c-.9-.16-6.74,2.4-6.74,2.4-5.1,2.03-3.63,6.01-3.63,6.01,0,0,2.41,3.65,7.06.74,0,0,5.55-3.13,5.95-3.96.4-.82,1.04-2.37,1.04-2.37l4.98,3.59s-2.26,1.36-2.74,2.01c-.48.65-1.89,10.76,2.51,13.01,4.41,2.25,7.06-1.34,7.29-4.52.23-3.18.11-9.26.11-9.26,0,0-2.85-.58-2.86-1.4,0-.81,12.83-6.1,12.83-6.1,0,0-.5-6.32,3.17-3.87,0,0,1.37,6.1,5.34,3.12l.12-7.49-3.78-4.32-1.19-5.49-6.06-4.2c-4.76,1.44-.64,6.15-.64,6.15-.19,4.4-5,.27-5,.27,0,0-11.84,7.24-12.5,6.75-.65-.48.56-3.13.56-3.13,0,0-4.83-3.68-7.54-5.37-2.7-1.69-7.17-1.67-7.95,3.22h0Z"/>
        <path class="cls-37" d="M260.49,262.19c4.45-2.18,3.21-12.3,2.73-12.96-.47-.66-2.47-1.79-2.47-1.79l4.78-3.76s.6,1.59.98,2.42c.38.83,5.85,4.12,5.85,4.12,4.6,2.99,7.01-.49,7.01-.49,0,0,1.59-4.07-3.47-6.19,0,0-5.77-2.73-6.67-2.58-.9.15-2.54.52-2.54.52l.06-6.13s2.42,1.06,3.23,1.08c.81.02,9.88-4.66,9.17-9.56-.7-4.9-5.17-5-7.9-3.35-2.73,1.64-7.62,5.24-7.62,5.24,0,0,1.17,2.67.51,3.14-.66.47-12.38-6.96-12.38-6.96,0,0-4.87,4.05-4.99-.35,0,0,4.19-4.64-.54-6.16l-6.19,4.22-1.35,5.59-3.79,4.14.06,7.37c3.92,3.06,5.4-3.02,5.4-3.02,3.71-2.39,3.1,3.92,3.1,3.92,0,0,12.74,5.5,12.73,6.32-.02.81-2.88,1.35-2.88,1.35,0,0-.22,6.07-.04,9.26.18,3.18,2.77,6.82,7.22,4.64h.02Z"/>
        <path class="cls-37" d="M161.19,159.75c-4.41,2.26-3,12.35-2.51,13.01.48.65,2.5,1.74,2.5,1.74l-4.72,3.84s-.62-1.59-1.03-2.4c-.4-.82-5.92-4.02-5.92-4.02-4.65-2.91-6.99.61-6.99.61,0,0-1.52,4.1,3.57,6.13,0,0,5.81,2.63,6.71,2.46.9-.17,2.53-.56,2.53-.56l.05,6.14s-2.43-1.02-3.25-1.02c-.81,0-9.8,4.83-9.01,9.71.78,4.89,5.25,4.91,7.95,3.22,2.7-1.69,7.54-5.37,7.54-5.37,0,0-1.21-2.65-.56-3.13.65-.48,12.5,6.75,12.5,6.75,0,0,4.8-4.13,5,.27,0,0-4.12,4.71.64,6.15l6.12-4.32,1.25-5.61,3.72-4.2-.19-7.37c-3.97-2.99-5.34,3.12-5.34,3.12-3.66,2.45-3.17-3.87-3.17-3.87,0,0-12.83-5.29-12.83-6.1,0-.81,2.86-1.4,2.86-1.4,0,0,.12-6.07-.11-9.26-.23-3.18-2.89-6.77-7.29-4.52h0Z"/>
      </g>
    </g>
  </g>
</svg>