<?xml version="1.0" encoding="UTF-8"?>
<svg xmlns="http://www.w3.org/2000/svg" xmlns:xlink="http://www.w3.org/1999/xlink" version="1.1" viewBox="0 0 402 421">
  <defs>
    <style>
      .cls-1 {
        fill: none;
      }

      .cls-2 {
        fill: #5b8c30;
      }

      .cls-3 {
        fill: #639b30;
      }

      .cls-4 {
        mix-blend-mode: multiply;
        opacity: .3;
      }

      .cls-5, .cls-6, .cls-7, .cls-8, .cls-9 {
        isolation: isolate;
      }

      .cls-10 {
        fill: #527c2e;
      }

      .cls-6 {
        fill: url(#radial-gradient);
        opacity: .7;
      }

      .cls-6, .cls-7, .cls-8, .cls-11 {
        mix-blend-mode: screen;
      }

      .cls-12, .cls-7, .cls-8 {
        fill-rule: evenodd;
      }

      .cls-12, .cls-13 {
        fill: #00ff0a;
      }

      .cls-7 {
        fill: url(#radial-gradient-3);
      }

      .cls-8 {
        fill: url(#radial-gradient-4);
      }

      .cls-14 {
        opacity: .9;
      }

      .cls-15 {
        opacity: .5;
      }

      .cls-16 {
        fill: #7bb53e;
      }

      .cls-9 {
        fill: url(#radial-gradient-2);
        mix-blend-mode: lighten;
      }

      .cls-17 {
        fill: #374f21;
      }

      .cls-18 {
        fill: #517a2e;
      }
    </style>
    <radialGradient id="radial-gradient" cx="-95.32" cy="630.43" fx="-95.32" fy="630.43" r="1" gradientTransform="translate(13736.14 90716.91) scale(141.99 -143.55)" gradientUnits="userSpaceOnUse">
      <stop offset=".52" stop-color="#fff" stop-opacity="0"/>
      <stop offset=".75" stop-color="#00ff1a"/>
      <stop offset=".79" stop-color="#00bf35"/>
      <stop offset=".83" stop-color="#00861d"/>
      <stop offset=".87" stop-color="#005622"/>
      <stop offset="1" stop-color="#fff" stop-opacity="0"/>
    </radialGradient>
    <radialGradient id="radial-gradient-2" cx="-94.13" cy="630.33" fx="-94.13" fy="630.33" r="1" gradientTransform="translate(-17816.7 56924.72) rotate(26.39) scale(95.97 -93.27)" gradientUnits="userSpaceOnUse">
      <stop offset="0" stop-color="#993494"/>
      <stop offset=".04" stop-color="#1a037a"/>
      <stop offset=".4" stop-color="#725070"/>
      <stop offset="1" stop-color="#725070" stop-opacity="0"/>
    </radialGradient>
    <radialGradient id="radial-gradient-3" cx="-82.68" cy="602.5" fx="-82.68" fy="602.5" r="1" gradientTransform="translate(801.51 4452.89) scale(7.21 -7.15)" gradientUnits="userSpaceOnUse">
      <stop offset="0" stop-color="#05ff00"/>
      <stop offset=".04" stop-color="#22f100"/>
      <stop offset=".4" stop-color="#2c8b00"/>
      <stop offset=".69" stop-color="#094000"/>
      <stop offset=".9" stop-color="#011100"/>
      <stop offset="1" stop-color="#000"/>
    </radialGradient>
    <radialGradient id="radial-gradient-4" cx="-78.55" cy="593.38" fx="-78.55" fy="593.38" r="1" gradientTransform="translate(691.09 3418.94) scale(5.5 -5.45)" gradientUnits="userSpaceOnUse">
      <stop offset="0" stop-color="#00cfff"/>
      <stop offset=".04" stop-color="#00c4f1"/>
      <stop offset=".4" stop-color="#00718b"/>
      <stop offset=".69" stop-color="#003440"/>
      <stop offset=".9" stop-color="#000e11"/>
      <stop offset="1" stop-color="#000"/>
    </radialGradient>
  </defs>
  <!-- Generator: Adobe Illustrator 28.7.0, SVG Export Plug-In . SVG Version: 1.2.0 Build 55)  -->
  <g class="cls-5">
    <g id="Layer_1">
      <g>
        <path class="cls-3" d="M242.2,211.88c-8.86-1.48-16.98-2.27-23.64-3.46,6.51-2.78,12.95-4.16,20.75-6.57,13.24-4.08,21.59-18.38,15.98-28.65-2.82-5.16-7.63-7.6-12.35-7.9-3.39-.22-6.72.65-9.23,2.42,2.76-6.81-.52-17.07-10.24-19.77-11.28-3.13-22.78,6.24-23.7,22.9-.45,8.09-1.55,13.18-1.96,23,0,.08,0,.17-.01.25-2.68-6.22-6.22-15.02-8.8-23.38-4.08-13.24-17.73-22.58-28-16.97-7.6,4.15-9.31,12.65-6.96,18.77.36.95.82,1.84,1.37,2.65.04.05.07.11.11.16-6.81-2.76-17.07.52-19.77,10.24-3.13,11.28,6.49,24.89,23.83,24.89,8.75,0,16.29,1.42,24.56,1.42-7.35,2.58-15.71,5.17-23.51,7.57-13.24,4.08-21.94,18-16.33,28.28,4.13,7.56,12.56,9.29,18.67,7,.98-.37,1.91-.84,2.74-1.41.05-.04.11-.07.16-.11-2.76,6.81.52,17.07,10.24,19.77,11.28,3.13,21-9.07,23.69-22.66,1.41-7.1,1.13-14.29,1.75-20.55.23,3.49.39,6.98.47,10.47.31,17.53-.46,56.82-21.78,61.39-1.82.35-2.97,2.2-2.49,3.99.46,1.74,2.25,2.76,3.98,2.29,2.26-.6,4.46-1.53,6.45-2.77,19.37-12.29,18.14-50.49,14.8-76.24,2.31,6.29,4.51,15.27,6.77,22.61,4.08,13.24,18.57,21.28,28.84,15.67,5.73-3.13,8.11-8.72,7.93-13.91-.1-2.83-.95-5.55-2.45-7.67,6.81,2.76,17.07-.52,19.77-10.24,3.13-11.28-7.98-21.19-21.64-23.48h0Z"/>
        <path class="cls-2" d="M202.21,210.29s.1-.02.16-.03c.06,0,.12-.02.18-.03.06,0,.12-.02.19-.03.07,0,.14-.02.21-.03.07,0,.15-.02.22-.03.08-.01.15-.02.24-.03.08-.01.17-.02.25-.03.09-.01.17-.02.26-.03.09-.01.18-.02.26-.03.1-.01.19-.02.3-.04.1-.01.22-.03.32-.04.09-.01.18-.02.27-.03.2-.02.41-.05.62-.08.11-.01.23-.03.35-.04.11-.01.22-.03.33-.04.11-.01.23-.03.35-.04.12-.01.24-.03.36-.04.12-.01.24-.03.36-.04.12-.01.24-.03.35-.04.12-.01.24-.03.37-.04.13-.01.25-.03.38-.04.12-.01.24-.03.35-.04.12-.01.25-.03.37-.04.14-.02.29-.03.43-.05.1-.01.2-.02.31-.03.14-.01.28-.03.42-.05.11-.01.22-.03.33-.04.14-.02.28-.03.41-.05.11-.01.22-.02.33-.04.15-.02.3-.03.45-.05.05,0,.1-.01.15-.02.79-.09,1.55-.17,2.26-.24.11-.01.23-.02.34-.04.1-.01.19-.02.28-.03.1-.01.21-.02.31-.03.17-.02.34-.04.5-.05.02,0,.03,0,.05,0,.12-.01.24-.02.35-.04.11-.01.23-.02.34-.04.01,0,.02,0,.03,0,.16-.02.31-.03.45-.05.04,0,.07,0,.11-.01.11-.01.22-.02.32-.03.03,0,.06,0,.08,0,.1-.01.19-.02.27-.03.05,0,.1-.01.14-.01.03,0,.05,0,.08,0,.17-.02.31-.03.4-.04h0c.1,0,.16-.02.16-.02,6.51-2.78,12.95-4.16,20.75-6.57,13.24-4.08,21.59-18.38,15.98-28.65-2.82-5.16-7.63-7.6-12.35-7.9-3.39-.22-6.72.65-9.23,2.42,0,0-32.49,42.98-32.1,42.7.04-.03.2-.06.46-.11.04,0,.1-.02.15-.02h0Z"/>
        <path class="cls-2" d="M197.81,193.85c0,.09,0,.17-.01.25-2.68-6.22-6.22-15.02-8.8-23.38-4.08-13.24-17.73-22.58-28-16.97-7.6,4.15-9.31,12.65-6.96,18.77.36.95.82,1.84,1.37,2.65l46.2,35.24-.35-1.5-3.45-15.06h0Z"/>
        <path class="cls-2" d="M184.14,211.88c-7.35,2.58-15.71,5.17-23.51,7.57-13.24,4.08-21.94,18.01-16.33,28.28,4.13,7.56,12.56,9.29,18.67,7,.98-.37,1.91-.84,2.74-1.41l35.9-42.91-17.47,1.47h0Z"/>
        <path class="cls-2" d="M202.99,228.9c2.31,6.29,4.51,15.27,6.77,22.61,4.08,13.24,18.57,21.28,28.84,15.67,5.73-3.13,8.11-8.72,7.93-13.91-.1-2.84-.95-5.55-2.45-7.67l-42.46-35.19.39,16c.33.76.66,1.6.98,2.48h0Z"/>
        <path class="cls-17" d="M201.56,229.77c.23,3.49.39,6.98.47,10.47.31,17.53-.46,56.82-21.78,61.39-1.82.35-2.97,2.2-2.49,3.99.46,1.74,2.25,2.76,3.98,2.29,2.26-.6,4.46-1.53,6.45-2.77,19.37-12.3,18.14-50.49,14.8-76.25-.32-.88-.65-1.71-.98-2.48-.19,1.08-.33,2.21-.44,3.36Z"/>
        <path class="cls-16" d="M203.97,178.6c6.31,1.97,23.64-4.57,24.43-13.52.79-8.95-3.28-13.23-8.28-13.28,0,0-8.96-1.97-12.95,5.52-3.99,7.49-9.51,19.31-3.2,21.28h0Z"/>
        <path class="cls-16" d="M250.67,239.88c6.11,1.58,9.06,1.58,11.23-6.5,2.17-8.08-8.08-14.58-12.61-16.55-4.53-1.97-16.55-3.15-16.55-3.15-3.15.79,11.82,24.63,17.93,26.21Z"/>
        <path class="cls-16" d="M176.79,207.97s-21.28-32.84-34.09-27.16c0,0-9.06,9.82,1.18,21.25,0,0,13.4,6.11,32.9,5.91Z"/>
        <path class="cls-16" d="M189.94,237.32s-18.47,14.78-19.85,21.08c-1.38,6.31,4.05,15.22,13.6,11.17,9.55-4.06,15.86-23.58,6.26-32.25Z"/>
        <path class="cls-10" d="M247.95,172.74c2.75,9.91-4.96,17.8-12.68,22.68-4.77,3.02-10.01,5.25-15.2,7.43-6,2.52-12.08,4.86-18.05,7.47.02,0,.04,0,.06,0,.05,0,.1-.02.15-.03.05,0,.1-.02.16-.02.06,0,.12-.02.18-.03.06,0,.12-.02.19-.03.07,0,.14-.02.21-.03.07,0,.15-.02.22-.03.08-.01.15-.02.24-.03.08-.01.17-.02.25-.03s.17-.02.26-.03c.09-.01.18-.02.26-.03.1-.01.19-.02.3-.04.1-.01.22-.03.32-.04.09-.01.18-.02.27-.03.2-.02.41-.05.62-.07.11-.01.23-.03.35-.04.11-.01.22-.03.33-.04.11-.01.23-.03.35-.04.12-.01.24-.03.36-.04.12-.01.24-.03.36-.04.12-.01.24-.03.35-.04.12-.01.24-.03.37-.04.13-.01.25-.03.38-.04.12-.01.24-.03.35-.04.12-.01.25-.03.37-.04.14-.02.29-.03.43-.05.1-.01.2-.02.31-.03.14-.02.28-.03.42-.05.11-.01.22-.02.33-.04.14-.01.28-.03.41-.04.11-.01.22-.02.33-.04.15-.02.3-.03.45-.05.05,0,.1-.01.15-.02.79-.09,1.55-.17,2.26-.24.11-.01.23-.03.34-.04.1,0,.19-.02.28-.03.1-.01.21-.02.31-.03.17-.02.34-.04.5-.05.02,0,.03,0,.05,0,.12-.01.24-.02.35-.04.11-.01.23-.02.34-.04.01,0,.02,0,.03,0,.16-.02.31-.03.45-.05.04,0,.07,0,.11-.01.11-.01.22-.02.32-.03.03,0,.06,0,.08,0,.1-.01.19-.02.27-.03.05,0,.1,0,.14-.01.03,0,.05,0,.08,0,.17-.02.31-.03.4-.04h0c.1-.01.16-.02.16-.02,6.51-2.78,12.95-4.16,20.75-6.57,13.24-4.08,21.59-18.38,15.98-28.65-2.82-5.16-7.63-7.6-12.35-7.9,2.4,1.76,4.15,4.38,5,7.45h0Z"/>
        <path class="cls-18" d="M161.64,163.14c3.85-2.06,8.21-1.34,11.7,1.11,2.38,1.66,4.31,3.87,5.98,6.23,1.86,2.65,3.61,5.38,5.18,8.21,5.58,10.1,9.38,21.27,16.77,30.22l-3.45-15.06c0,.08,0,.17,0,.25-2.68-6.22-6.22-15.01-8.8-23.38-4.08-13.24-17.73-22.58-28-16.97-7.6,4.15-9.31,12.65-6.96,18.77,1.58-3.83,3.96-7.44,7.6-9.39h0Z"/>
        <path class="cls-10" d="M154.4,245.84c-1.39-5.88,1.81-11.37,5.76-15.46,4.03-4.17,9.03-7.29,14.26-9.72,5.27-2.44,10.8-4.24,16.34-5.93,3.47-1.06,6.88-2.33,10.27-3.63l.57-.68-17.47,1.47c-7.35,2.58-15.71,5.17-23.51,7.57-13.24,4.08-21.94,18.01-16.33,28.28,4.13,7.56,12.56,9.29,18.67,7-1.6-.68-3.21-1.36-4.59-2.39-2.12-1.57-3.38-3.96-3.98-6.5h0Z"/>
        <path class="cls-10" d="M219.28,241.07c-6.51-9.71-12.69-19.74-17.66-30.34l.39,15.69c.33.77.66,1.6.98,2.48,2.31,6.29,4.51,15.27,6.77,22.61,4.08,13.24,18.56,21.28,28.84,15.67,5.73-3.13,8.11-8.72,7.93-13.91-2.22,1.49-5.15,2.27-7.46,2.46-8.99.74-15.37-8.09-19.78-14.66h0Z"/>
      </g>
      <g class="cls-11">
        <g class="cls-14">
          <g class="cls-4">
            <path class="cls-12" d="M309.71,221.5c0,4.51-.27,8.96-.79,13.33-.09.86-.21,1.69-.33,2.53-.21,1.53-.46,3.05-.74,4.54-4.95,27.05-19.6,50.68-40.17,67.05-1.04.84-2.1,1.64-3.17,2.44-18.21,13.45-40.63,21.38-64.9,21.38-21.22,0-41.05-6.08-57.87-16.59-.83-.52-1.64-1.05-2.47-1.59-29.98-19.87-49.78-54.15-49.78-93.11,0-25.05,8.18-48.17,22-66.75,1.16-1.55,2.35-3.08,3.58-4.56,20.2-24.43,50.57-39.97,84.52-39.97,60.21,0,109.14,48.88,110.07,109.54,0,.59.02,1.18.02,1.76l.04-.02Z"/>
            <path class="cls-12" d="M309.71,221.5c0,40.95-21.87,76.73-54.45,96.07-16.32,9.68-35.34,15.24-55.63,15.24s-41.05-6.08-57.87-16.59c-31.36-19.6-52.23-54.69-52.23-94.69,0-1.44.04-2.87.09-4.31,1.55,40.73,24.73,75.84,58.29,93.93,15.42,8.32,33.03,13.03,51.73,13.03s36.8-4.85,52.38-13.38c33.19-18.18,56.09-53.1,57.62-93.57.05,1.43.09,2.87.09,4.31l-.04-.02Z"/>
            <path class="cls-12" d="M296.72,168.95l-8.07,5.54-6.89,4.74c-14.67-32.84-45.91-55.53-82.08-55.53-27.53,0-52.22,13.13-68.9,33.91l-13.24-10.21c5.02-5.68,10.63-10.85,16.69-15.4,11.23-8.39,24.08-14.68,38-18.28,8.78-2.28,17.96-3.49,27.44-3.49,20.5,0,39.68,5.67,56.1,15.52,17.24,10.34,31.44,25.32,40.94,43.21v-.02Z"/>
            <path class="cls-12" d="M184.85,331.8c-53.81-7.31-95.3-53.9-95.3-110.3,0-20.22,5.34-39.18,14.67-55.54l14.63,10.46c-6.54,13.49-10.22,28.82-10.22,45.07,0,38.12,20.29,71.15,49.9,87.28l26.32,23.02.02.02Z"/>
            <path class="cls-12" d="M309.71,221.5c0,46.81-28.57,86.87-69.06,103.3l9.91-22.24c24.18-17.59,40.08-47.33,40.08-81.08,0-12.12-2.04-23.72-5.8-34.41l15.42-10.73c6.06,13.79,9.45,29.08,9.45,45.15Z"/>
            <path class="cls-12" d="M128.59,160.75l-3.37,4.29-13.7-10.3c1.16-1.55,2.34-3.08,3.58-4.56l13.48,10.59v-.02Z"/>
            <path class="cls-12" d="M255.26,317.56c-16.32,9.68-35.34,15.24-55.63,15.24s-41.05-6.08-57.87-16.59c-.32-.98-.26-1.94.26-2.89.56-1.23,2.7-1.91,5.87-2.19,11.49-1.05,36.75,2.83,51.71,2.19,21.71-.12,45.1-2.94,52.38-2.53.99.05,1.67.16,2.03.36.05.04.09.05.14.07,2.38,1.3,2.77,4.46,1.09,6.36v-.02Z"/>
            <path class="cls-13" d="M307.88,241.92c-9.48,51.71-54.34,90.88-108.24,90.88-21.22,0-41.05-6.08-57.87-16.59,39.89-2.92,77.2-9.12,109.84-21.28l1.76-5.31c26.72-7.47,45.6-22.95,54.5-47.7Z"/>
            <path class="cls-13" d="M143.78,228.23c0,2.55-1.64,4.63-5.02,4.63s-6.13-2.07-6.13-4.63,2.75-4.63,6.13-4.63,5.02,2.07,5.02,4.63Z"/>
            <path class="cls-13" d="M309.71,221.5c0,4.51-.26,8.96-.79,13.33-1.99-1.03-4.39-2.78-4.95-5.38-.48-2.21,3.12-6.59,5.71-9.69,0,.59.02,1.18.02,1.76l.02-.02Z"/>
            <path class="cls-13" d="M288.64,174.47l-6.89,4.74c-14.66-32.84-45.91-55.53-82.08-55.53,35.02-2.62,75.58,18.07,88.98,50.79Z"/>
            <path class="cls-13" d="M199.65,123.68c-27.53,0-52.22,13.13-68.9,33.91l-13.24-10.21c5.02-5.68,10.63-10.85,16.69-15.4l-4.07,5.9c25.88-11.19,48.58-14.77,69.52-14.18v-.02Z"/>
            <path class="cls-13" d="M135.19,144.76c-1.46-.11-2.93.2-4.21.91-.97.55-1.45,1.09-.63,1.6,1.3.82,7.44-1.43,6.86-2.05-.26-.29-1.13-.41-2.01-.48v.02Z"/>
            <path class="cls-13" d="M143.07,138.71c-1.82,0-4.55.11-3.33,1.12,1.22,1.02,6.06-.11,5.85-.57-.19-.46-2.52-.57-2.52-.57v.02Z"/>
            <path class="cls-13" d="M250.26,129.1c-22.24-13.08-50.62-16.54-76.88-10.42l-1.14-4.99c8.78-2.28,17.96-3.49,27.44-3.49,17.75,0,34.53,4.24,49.37,11.8l1.23,7.11h-.02Z"/>
            <path class="cls-13" d="M268.04,152.04c0,3.28-2.63,5.93-5.87,5.93s-5.87-2.65-5.87-5.93,2.63-5.93,5.87-5.93,5.87,2.65,5.87,5.93Z"/>
            <path class="cls-12" d="M117.59,240.81s-3.93,26.96,0,27.26c3.93.3,0-27.26,0-27.26Z"/>
            <path class="cls-12" d="M125.57,265.21s-4.04,16.45,0,16.04c4.04-.41,0-16.04,0-16.04Z"/>
            <path class="cls-12" d="M137.08,273.23s-2.12,12.78-1.52,14.13c.6,1.36,3.63,6.24,4.55,4.7.55-.93-.42-2.94-1.27-4.38-.69-1.18-1.11-2.49-1.18-3.87l-.58-10.59Z"/>
            <path class="cls-13" d="M146.99,292.36s-1.71,7.98-.4,8.48.4-8.48.4-8.48Z"/>
            <path class="cls-13" d="M128.6,256.39c0,1.55-.28,2.82-.62,2.82s-.62-1.27-.62-2.82.28-2.82.62-2.82.62,1.26.62,2.82Z"/>
            <path class="cls-13" d="M134.15,269.45c0,2.33-.49,4.24-1.11,4.24s-1.11-1.89-1.11-4.24.49-4.24,1.11-4.24,1.11,1.89,1.11,4.24Z"/>
            <path class="cls-13" d="M132.23,285.59s-2.56,8.79-.3,8.86c2.26.07.3-8.86.3-8.86Z"/>
            <path class="cls-13" d="M142.47,301.22c.54,0,.97-.44.97-.98s-.43-.98-.97-.98-.97.44-.97.98.43.98.97.98Z"/>
            <path class="cls-13" d="M272.8,290.64c-1.83,2.8-3.81,11.62-5.09,18.34-1.04.84-2.1,1.64-3.17,2.44-.14-1.41-.28-3.15-.37-5.31-.48-11.64,3.65-17.57,5.8-19.48,2.15-1.91,5.92-.68,2.84,4.01Z"/>
            <path class="cls-13" d="M305.51,200.99c0,2.44-1.2,4.42-2.66,4.42s-2.33-1.98-2.33-4.42,1.36-3.33,2.82-3.33,2.15.89,2.15,3.33h.02Z"/>
          </g>
          <path class="cls-6" d="M301.4,319.37c55.45-56.06,55.45-146.95,0-203.01-55.45-56.06-145.36-56.06-200.81,0-55.45,56.06-55.45,146.95,0,203.01,55.45,56.06,145.35,56.06,200.81,0Z"/>
          <path class="cls-9" d="M306.4,288.08c22.51-46.37,2.26-103.05-45.23-126.61-47.49-23.56-104.23-5.07-126.74,41.29-22.51,46.37-2.26,103.05,45.23,126.61s104.23,5.07,126.74-41.29Z"/>
          <path class="cls-7" d="M212.71,147.62c0,3.94-3.23,7.15-7.21,7.15s-7.21-3.21-7.21-7.15,3.23-7.15,7.21-7.15,7.21,3.21,7.21,7.15Z"/>
          <path class="cls-8" d="M264.52,183.36c0,3.01-2.47,5.45-5.5,5.45s-5.5-2.44-5.5-5.45,2.47-5.45,5.5-5.45,5.5,2.44,5.5,5.45Z"/>
        </g>
        <g class="cls-15">
          <rect class="cls-1" x="90.72" y="110.32" width="218.88" height="222.2"/>
          <rect class="cls-1" x="138.74" y="122.22" width="175" height="203.8"/>
        </g>
      </g>
    </g>
  </g>
</svg>